<?xml version="1.0" encoding="utf-8"?>
<!-- Generator: Adobe Illustrator 26.0.1, SVG Export Plug-In . SVG Version: 6.00 Build 0)  -->
<svg version="1.1" id="Layer_1" xmlns="http://www.w3.org/2000/svg" xmlns:xlink="http://www.w3.org/1999/xlink" x="0px" y="0px"
	 viewBox="0 0 24 24" style="enable-background:new 0 0 24 24;" xml:space="preserve">
<style type="text/css">
	.st0{fill:#F7F7F7;}
	.st1{fill:#023154;}
	.st2{fill:none;stroke:#231F20;stroke-width:0.9267;stroke-miterlimit:10;}
	.st3{fill:none;stroke:#FF0303;stroke-width:0.9377;stroke-miterlimit:10;}
	.st4{fill:none;stroke:#FF0303;stroke-width:1.0355;stroke-miterlimit:10;}
	.st5{fill:none;stroke:#FF0303;stroke-width:1.0726;stroke-miterlimit:10;}
	.st6{fill:none;stroke:#FF0303;stroke-miterlimit:10;}
	.st7{fill:none;stroke:#FF0303;stroke-width:0.964;stroke-miterlimit:10;}
	.st8{fill:none;stroke:#FF0303;stroke-width:1.0531;stroke-miterlimit:10;}
	.st9{fill:none;stroke:#FF0303;stroke-width:1.0531;stroke-linecap:round;stroke-linejoin:round;stroke-miterlimit:10;}
	.st10{fill:none;stroke:#FF0303;stroke-width:0.5;stroke-linecap:round;stroke-linejoin:round;stroke-miterlimit:10;}
	.st11{fill:none;stroke:#FF0303;stroke-width:0.6818;stroke-linecap:round;stroke-linejoin:round;stroke-miterlimit:10;}
	.st12{fill:none;stroke:#FF0303;stroke-width:0.6744;stroke-linecap:round;stroke-linejoin:round;stroke-miterlimit:10;}
	.st13{fill:none;stroke:#FF0303;stroke-width:0.5122;stroke-linecap:round;stroke-linejoin:round;stroke-miterlimit:10;}
	.st14{fill:none;stroke:#FF0303;stroke-width:0.4891;stroke-linecap:round;stroke-linejoin:round;stroke-miterlimit:10;}
	.st15{fill:none;stroke:#FF0303;stroke-width:0.3371;stroke-linecap:round;stroke-linejoin:round;stroke-miterlimit:10;}
	.st16{fill:none;stroke:#231F20;stroke-width:1.2;stroke-linecap:round;stroke-linejoin:round;stroke-miterlimit:10;}
	.st17{fill:none;stroke:#231F20;stroke-width:0.5;stroke-linecap:round;stroke-linejoin:round;stroke-miterlimit:10;}
	.st18{fill:#231F20;}
</style>
<path class="st18" d="M11.76,11.67H7.59c-0.33,0-0.6-0.27-0.6-0.6V6.61c0-0.33,0.27-0.6,0.6-0.6h4.17c0.33,0,0.6,0.27,0.6,0.6v4.46
	C12.36,11.41,12.09,11.67,11.76,11.67z M8.19,10.47h2.97V7.21H8.19V10.47z"/>
<g>
	<path class="st18" d="M20.21,6.39c-0.02-0.04-0.04-0.07-0.07-0.1c-0.02-0.03-0.03-0.06-0.06-0.09l-4.41-4.56c0,0,0,0,0,0
		c-0.11-0.11-0.26-0.18-0.43-0.18H5.68c-1.07,0-1.94,0.87-1.94,1.94v17.22c0,1.07,0.87,1.94,1.94,1.94h12.65
		c1.07,0,1.94-0.87,1.94-1.94v-14C20.26,6.53,20.24,6.46,20.21,6.39z M15.85,3.54l2.4,2.48h-1.66c-0.41,0-0.74-0.33-0.74-0.74V3.54z
		 M18.32,21.35H5.68c-0.41,0-0.74-0.33-0.74-0.74V3.39c0-0.41,0.33-0.74,0.74-0.74h8.97v2.62c0,1.07,0.87,1.94,1.94,1.94h2.48v13.4
		C19.06,21.02,18.73,21.35,18.32,21.35z"/>
	<path class="st18" d="M16.38,14.47H7.59c-0.33,0-0.6,0.27-0.6,0.6s0.27,0.6,0.6,0.6h8.79c0.33,0,0.6-0.27,0.6-0.6
		S16.71,14.47,16.38,14.47z"/>
	<path class="st18" d="M16.38,17.47H7.59c-0.33,0-0.6,0.27-0.6,0.6s0.27,0.6,0.6,0.6h8.79c0.33,0,0.6-0.27,0.6-0.6
		S16.71,17.47,16.38,17.47z"/>
</g>
</svg>
