<?xml version="1.0" encoding="utf-8"?>
<!-- Generator: Adobe Illustrator 26.0.1, SVG Export Plug-In . SVG Version: 6.00 Build 0)  -->
<svg version="1.1" id="Layer_1" xmlns="http://www.w3.org/2000/svg" xmlns:xlink="http://www.w3.org/1999/xlink" x="0px" y="0px"
	 viewBox="0 0 24 24" style="enable-background:new 0 0 24 24;" xml:space="preserve">
<style type="text/css">
	.st0{fill:#F7F7F7;}
	.st1{fill:#023154;}
	.st2{fill:none;stroke:#231F20;stroke-width:0.9267;stroke-miterlimit:10;}
	.st3{fill:none;stroke:#FF0303;stroke-width:0.9377;stroke-miterlimit:10;}
	.st4{fill:none;stroke:#FF0303;stroke-width:1.0355;stroke-miterlimit:10;}
	.st5{fill:none;stroke:#FF0303;stroke-width:1.0726;stroke-miterlimit:10;}
	.st6{fill:none;stroke:#FF0303;stroke-miterlimit:10;}
	.st7{fill:none;stroke:#FF0303;stroke-width:0.964;stroke-miterlimit:10;}
	.st8{fill:none;stroke:#FF0303;stroke-width:1.0531;stroke-miterlimit:10;}
	.st9{fill:none;stroke:#FF0303;stroke-width:1.0531;stroke-linecap:round;stroke-linejoin:round;stroke-miterlimit:10;}
	.st10{fill:none;stroke:#FF0303;stroke-width:0.5;stroke-linecap:round;stroke-linejoin:round;stroke-miterlimit:10;}
	.st11{fill:none;stroke:#FF0303;stroke-width:0.6818;stroke-linecap:round;stroke-linejoin:round;stroke-miterlimit:10;}
	.st12{fill:none;stroke:#FF0303;stroke-width:0.6744;stroke-linecap:round;stroke-linejoin:round;stroke-miterlimit:10;}
	.st13{fill:none;stroke:#FF0303;stroke-width:0.5122;stroke-linecap:round;stroke-linejoin:round;stroke-miterlimit:10;}
	.st14{fill:none;stroke:#FF0303;stroke-width:0.4891;stroke-linecap:round;stroke-linejoin:round;stroke-miterlimit:10;}
	.st15{fill:none;stroke:#FF0303;stroke-width:0.3371;stroke-linecap:round;stroke-linejoin:round;stroke-miterlimit:10;}
	.st16{fill:none;stroke:#231F20;stroke-width:1.2;stroke-linecap:round;stroke-linejoin:round;stroke-miterlimit:10;}
	.st17{fill:none;stroke:#231F20;stroke-width:0.5;stroke-linecap:round;stroke-linejoin:round;stroke-miterlimit:10;}
	.st18{fill:#231F20;}
</style>
<g>
	<path class="st18" d="M18.52,3.48c-0.33,0-0.6,0.27-0.6,0.6s0.27,0.6,0.6,0.6c1.07,0,1.95,0.87,1.95,1.95v12.04
		c0,1.07-0.87,1.95-1.95,1.95H5.48c-1.07,0-1.95-0.87-1.95-1.95V6.63c0-1.07,0.87-1.95,1.95-1.95c0.33,0,0.6-0.27,0.6-0.6
		s-0.27-0.6-0.6-0.6c-1.73,0-3.14,1.41-3.14,3.15v12.04c0,1.73,1.41,3.15,3.14,3.15h13.04c1.73,0,3.14-1.41,3.14-3.15V6.63
		C21.66,4.89,20.25,3.48,18.52,3.48z"/>
	<path class="st18" d="M8.31,7.58c0.68,0,1.22-0.55,1.22-1.22c0-0.45-0.26-0.83-0.62-1.05V2.79c0-0.33-0.27-0.6-0.6-0.6
		c-0.33,0-0.6,0.27-0.6,0.6v2.52C7.35,5.52,7.09,5.9,7.09,6.36C7.09,7.03,7.64,7.58,8.31,7.58z"/>
	<path class="st18" d="M12,7.58c0.67,0,1.22-0.55,1.22-1.22c0-0.45-0.26-0.83-0.62-1.04V2.79c0-0.33-0.27-0.6-0.6-0.6
		s-0.6,0.27-0.6,0.6v2.52c-0.37,0.21-0.62,0.59-0.62,1.05C10.78,7.03,11.32,7.58,12,7.58z"/>
	<path class="st18" d="M15.77,7.58c0.68,0,1.22-0.55,1.22-1.22c0-0.45-0.26-0.83-0.62-1.05V2.79c0-0.33-0.27-0.6-0.6-0.6
		c-0.33,0-0.6,0.27-0.6,0.6v2.52c-0.37,0.21-0.62,0.59-0.62,1.04C14.55,7.03,15.1,7.58,15.77,7.58z"/>
</g>
<g>
	<path class="st18" d="M13.32,12.06l-1.9,2.16l-1.1-1.04c-0.24-0.23-0.62-0.22-0.85,0.02c-0.23,0.24-0.22,0.62,0.02,0.85l1.56,1.47
		c0.11,0.1,0.26,0.16,0.41,0.16c0.01,0,0.02,0,0.03,0c0.16-0.01,0.32-0.08,0.42-0.2l2.31-2.63c0.22-0.25,0.19-0.63-0.06-0.85
		C13.92,11.78,13.54,11.81,13.32,12.06z"/>
	<path class="st18" d="M12,8.84c-2.64,0-4.79,2.15-4.79,4.79s2.15,4.79,4.79,4.79s4.79-2.15,4.79-4.79S14.64,8.84,12,8.84z
		 M12,17.22c-1.98,0-3.59-1.61-3.59-3.59s1.61-3.59,3.59-3.59s3.59,1.61,3.59,3.59S13.98,17.22,12,17.22z"/>
</g>
</svg>
