<?xml version="1.0" encoding="utf-8"?>
<!-- Generator: Adobe Illustrator 26.0.1, SVG Export Plug-In . SVG Version: 6.00 Build 0)  -->
<svg version="1.1" id="Layer_1" xmlns="http://www.w3.org/2000/svg" xmlns:xlink="http://www.w3.org/1999/xlink" x="0px" y="0px"
	 viewBox="0 0 24 24" style="enable-background:new 0 0 24 24;" xml:space="preserve">
<style type="text/css">
	.st0{fill:#F7F7F7;}
	.st1{fill:#023154;}
	.st2{fill:none;stroke:#231F20;stroke-width:0.9267;stroke-miterlimit:10;}
	.st3{fill:none;stroke:#FF0303;stroke-width:0.9377;stroke-miterlimit:10;}
	.st4{fill:none;stroke:#FF0303;stroke-width:1.0355;stroke-miterlimit:10;}
	.st5{fill:none;stroke:#FF0303;stroke-width:1.0726;stroke-miterlimit:10;}
	.st6{fill:none;stroke:#FF0303;stroke-miterlimit:10;}
	.st7{fill:none;stroke:#FF0303;stroke-width:0.964;stroke-miterlimit:10;}
	.st8{fill:none;stroke:#FF0303;stroke-width:1.0531;stroke-miterlimit:10;}
	.st9{fill:none;stroke:#FF0303;stroke-width:1.0531;stroke-linecap:round;stroke-linejoin:round;stroke-miterlimit:10;}
	.st10{fill:none;stroke:#FF0303;stroke-width:0.5;stroke-linecap:round;stroke-linejoin:round;stroke-miterlimit:10;}
	.st11{fill:none;stroke:#FF0303;stroke-width:0.6818;stroke-linecap:round;stroke-linejoin:round;stroke-miterlimit:10;}
	.st12{fill:none;stroke:#FF0303;stroke-width:0.6744;stroke-linecap:round;stroke-linejoin:round;stroke-miterlimit:10;}
	.st13{fill:none;stroke:#FF0303;stroke-width:0.5122;stroke-linecap:round;stroke-linejoin:round;stroke-miterlimit:10;}
	.st14{fill:none;stroke:#FF0303;stroke-width:0.4891;stroke-linecap:round;stroke-linejoin:round;stroke-miterlimit:10;}
	.st15{fill:none;stroke:#FF0303;stroke-width:0.3371;stroke-linecap:round;stroke-linejoin:round;stroke-miterlimit:10;}
	.st16{fill:none;stroke:#231F20;stroke-width:1.2;stroke-linecap:round;stroke-linejoin:round;stroke-miterlimit:10;}
	.st17{fill:none;stroke:#231F20;stroke-width:0.5;stroke-linecap:round;stroke-linejoin:round;stroke-miterlimit:10;}
	.st18{fill:#231F20;}
</style>
<path class="st1" d="M10.52,5.93l-0.78,6.8c-0.04,0.34,0.07,0.69,0.31,0.95c0.23,0.25,0.55,0.39,0.89,0.39c0.01,0,0.02,0,0.03,0
	l6.85-0.15c-0.51,3.34-3.4,5.91-6.87,5.91c-3.83,0-6.95-3.12-6.95-6.95C3.99,9.17,6.88,6.14,10.52,5.93 M10.94,4.72
	c-4.5,0-8.15,3.65-8.15,8.15s3.65,8.15,8.15,8.15c4.5,0,8.15-3.65,8.15-8.15c0-0.06-0.01-0.12-0.01-0.18l-8.14,0.18l0.93-8.1
	C11.56,4.74,11.25,4.72,10.94,4.72L10.94,4.72z"/>
<path class="st1" d="M15.04,4.41c2.46,0.73,4.34,2.79,4.84,5.31l-5.46,0.12L15.04,4.41 M14,2.98l-0.93,8.1l8.14-0.18
	C21.12,6.79,18,3.43,14,2.98L14,2.98z"/>
</svg>
