<?xml version="1.0" encoding="utf-8"?>
<!-- Generator: Adobe Illustrator 26.0.1, SVG Export Plug-In . SVG Version: 6.00 Build 0)  -->
<svg version="1.1" id="Layer_1" xmlns="http://www.w3.org/2000/svg" xmlns:xlink="http://www.w3.org/1999/xlink" x="0px" y="0px"
	 viewBox="0 0 24 24" style="enable-background:new 0 0 24 24;" xml:space="preserve">
<style type="text/css">
	.st0{fill:#F7F7F7;}
	.st1{fill:#023154;}
	.st2{fill:none;stroke:#231F20;stroke-width:0.9267;stroke-miterlimit:10;}
	.st3{fill:none;stroke:#FF0303;stroke-width:0.9377;stroke-miterlimit:10;}
	.st4{fill:none;stroke:#FF0303;stroke-width:1.0355;stroke-miterlimit:10;}
	.st5{fill:none;stroke:#FF0303;stroke-width:1.0726;stroke-miterlimit:10;}
	.st6{fill:none;stroke:#FF0303;stroke-miterlimit:10;}
	.st7{fill:none;stroke:#FF0303;stroke-width:0.964;stroke-miterlimit:10;}
	.st8{fill:none;stroke:#FF0303;stroke-width:1.0531;stroke-miterlimit:10;}
	.st9{fill:none;stroke:#FF0303;stroke-width:1.0531;stroke-linecap:round;stroke-linejoin:round;stroke-miterlimit:10;}
	.st10{fill:none;stroke:#FF0303;stroke-width:0.5;stroke-linecap:round;stroke-linejoin:round;stroke-miterlimit:10;}
	.st11{fill:none;stroke:#FF0303;stroke-width:0.6818;stroke-linecap:round;stroke-linejoin:round;stroke-miterlimit:10;}
	.st12{fill:none;stroke:#FF0303;stroke-width:0.6744;stroke-linecap:round;stroke-linejoin:round;stroke-miterlimit:10;}
	.st13{fill:none;stroke:#FF0303;stroke-width:0.5122;stroke-linecap:round;stroke-linejoin:round;stroke-miterlimit:10;}
	.st14{fill:none;stroke:#FF0303;stroke-width:0.4891;stroke-linecap:round;stroke-linejoin:round;stroke-miterlimit:10;}
	.st15{fill:none;stroke:#FF0303;stroke-width:0.3371;stroke-linecap:round;stroke-linejoin:round;stroke-miterlimit:10;}
	.st16{fill:none;stroke:#231F20;stroke-width:1.2;stroke-linecap:round;stroke-linejoin:round;stroke-miterlimit:10;}
	.st17{fill:none;stroke:#231F20;stroke-width:0.5;stroke-linecap:round;stroke-linejoin:round;stroke-miterlimit:10;}
	.st18{fill:#231F20;}
</style>
<g>
	<path class="st18" d="M19.49,3.95H4.51c-1.22,0-2.21,0.99-2.21,2.21v13.29c0,0.23,0.13,0.44,0.34,0.54
		c0.08,0.04,0.17,0.06,0.26,0.06c0.13,0,0.26-0.04,0.37-0.13l4.44-3.45h11.79c1.22,0,2.21-0.99,2.21-2.21v-8.1
		C21.71,4.94,20.71,3.95,19.49,3.95z M20.51,14.26c0,0.56-0.46,1.01-1.01,1.01h-12c-0.13,0-0.26,0.04-0.37,0.13l-3.63,2.82V6.16
		c0-0.56,0.46-1.01,1.01-1.01h14.98c0.56,0,1.01,0.45,1.01,1.01V14.26z"/>
	<path class="st18" d="M15.35,7.53H8.35c-0.33,0-0.6,0.27-0.6,0.6s0.27,0.6,0.6,0.6h6.99c0.33,0,0.6-0.27,0.6-0.6
		S15.68,7.53,15.35,7.53z"/>
</g>
<path class="st18" d="M15.35,12.6H8.35c-0.33,0-0.6-0.27-0.6-0.6s0.27-0.6,0.6-0.6h6.99c0.33,0,0.6,0.27,0.6,0.6
	S15.68,12.6,15.35,12.6z"/>
</svg>
