<?xml version="1.0" encoding="utf-8"?>
<!-- Generator: Adobe Illustrator 26.0.1, SVG Export Plug-In . SVG Version: 6.00 Build 0)  -->
<svg version="1.1" id="Layer_1" xmlns="http://www.w3.org/2000/svg" xmlns:xlink="http://www.w3.org/1999/xlink" x="0px" y="0px"
	 viewBox="0 0 24 24" style="enable-background:new 0 0 24 24;" xml:space="preserve">
<style type="text/css">
	.st0{fill:#F7F7F7;}
	.st1{fill:#023154;}
	.st2{fill:none;stroke:#231F20;stroke-width:0.9267;stroke-miterlimit:10;}
	.st3{fill:none;stroke:#FF0303;stroke-width:0.9377;stroke-miterlimit:10;}
	.st4{fill:none;stroke:#FF0303;stroke-width:1.0355;stroke-miterlimit:10;}
	.st5{fill:none;stroke:#FF0303;stroke-width:1.0726;stroke-miterlimit:10;}
	.st6{fill:none;stroke:#FF0303;stroke-miterlimit:10;}
	.st7{fill:none;stroke:#FF0303;stroke-width:0.964;stroke-miterlimit:10;}
	.st8{fill:none;stroke:#FF0303;stroke-width:1.0531;stroke-miterlimit:10;}
	.st9{fill:none;stroke:#FF0303;stroke-width:1.0531;stroke-linecap:round;stroke-linejoin:round;stroke-miterlimit:10;}
	.st10{fill:none;stroke:#FF0303;stroke-width:0.5;stroke-linecap:round;stroke-linejoin:round;stroke-miterlimit:10;}
	.st11{fill:none;stroke:#FF0303;stroke-width:0.6818;stroke-linecap:round;stroke-linejoin:round;stroke-miterlimit:10;}
	.st12{fill:none;stroke:#FF0303;stroke-width:0.6744;stroke-linecap:round;stroke-linejoin:round;stroke-miterlimit:10;}
	.st13{fill:none;stroke:#FF0303;stroke-width:0.5122;stroke-linecap:round;stroke-linejoin:round;stroke-miterlimit:10;}
	.st14{fill:none;stroke:#FF0303;stroke-width:0.4891;stroke-linecap:round;stroke-linejoin:round;stroke-miterlimit:10;}
	.st15{fill:none;stroke:#FF0303;stroke-width:0.3371;stroke-linecap:round;stroke-linejoin:round;stroke-miterlimit:10;}
	.st16{fill:none;stroke:#231F20;stroke-width:1.2;stroke-linecap:round;stroke-linejoin:round;stroke-miterlimit:10;}
	.st17{fill:none;stroke:#231F20;stroke-width:0.5;stroke-linecap:round;stroke-linejoin:round;stroke-miterlimit:10;}
	.st18{fill:#231F20;}
</style>
<path class="st18" d="M10.94,21.42c-4.97,0-9.01-4.04-9.01-9.01s4.04-9.01,9.01-9.01c0.33,0,0.6,0.27,0.6,0.6s-0.27,0.6-0.6,0.6
	c-4.31,0-7.81,3.5-7.81,7.81s3.5,7.81,7.81,7.81c4.31,0,7.81-3.5,7.81-7.81c0-0.33,0.27-0.6,0.6-0.6s0.6,0.27,0.6,0.6
	C19.96,17.38,15.91,21.42,10.94,21.42z"/>
<g>
	<path class="st18" d="M21.47,5.82h-2.64V3.18c0-0.33-0.27-0.6-0.6-0.6s-0.6,0.27-0.6,0.6v2.64h-2.64c-0.33,0-0.6,0.27-0.6,0.6
		s0.27,0.6,0.6,0.6h2.64v2.64c0,0.33,0.27,0.6,0.6,0.6s0.6-0.27,0.6-0.6V7.02h2.64c0.33,0,0.6-0.27,0.6-0.6S21.8,5.82,21.47,5.82z"
		/>
	<path class="st18" d="M15.3,12.41c0-0.33-0.27-0.6-0.6-0.6h-1.36l-1.52-4.2c-0.08-0.23-0.3-0.38-0.54-0.4
		c-0.23,0-0.47,0.13-0.57,0.35l-4.13,8.91c-0.14,0.3-0.01,0.66,0.29,0.8c0.3,0.14,0.66,0.01,0.8-0.29l1.84-3.97h2.99l1.63,4.51
		c0.09,0.24,0.32,0.4,0.56,0.4c0.07,0,0.14-0.01,0.2-0.04c0.31-0.11,0.47-0.46,0.36-0.77l-1.49-4.11h0.92
		C15.03,13.01,15.3,12.74,15.3,12.41z M10.07,11.81l1.12-2.42l0.88,2.42H10.07z"/>
</g>
</svg>
