<?xml version="1.0" encoding="utf-8"?>
<!-- Generator: Adobe Illustrator 26.0.1, SVG Export Plug-In . SVG Version: 6.00 Build 0)  -->
<svg version="1.1" id="Layer_1" xmlns="http://www.w3.org/2000/svg" xmlns:xlink="http://www.w3.org/1999/xlink" x="0px" y="0px"
	 viewBox="0 0 24 24" style="enable-background:new 0 0 24 24;" xml:space="preserve">
<style type="text/css">
	.st0{fill:#F7F7F7;}
	.st1{fill:#023154;}
	.st2{fill:none;stroke:#231F20;stroke-width:0.9267;stroke-miterlimit:10;}
	.st3{fill:none;stroke:#FF0303;stroke-width:0.9377;stroke-miterlimit:10;}
	.st4{fill:none;stroke:#FF0303;stroke-width:1.0355;stroke-miterlimit:10;}
	.st5{fill:none;stroke:#FF0303;stroke-width:1.0726;stroke-miterlimit:10;}
	.st6{fill:none;stroke:#FF0303;stroke-miterlimit:10;}
	.st7{fill:none;stroke:#FF0303;stroke-width:0.964;stroke-miterlimit:10;}
	.st8{fill:none;stroke:#FF0303;stroke-width:1.0531;stroke-miterlimit:10;}
	.st9{fill:none;stroke:#FF0303;stroke-width:1.0531;stroke-linecap:round;stroke-linejoin:round;stroke-miterlimit:10;}
	.st10{fill:none;stroke:#FF0303;stroke-width:0.5;stroke-linecap:round;stroke-linejoin:round;stroke-miterlimit:10;}
	.st11{fill:none;stroke:#FF0303;stroke-width:0.6818;stroke-linecap:round;stroke-linejoin:round;stroke-miterlimit:10;}
	.st12{fill:none;stroke:#FF0303;stroke-width:0.6744;stroke-linecap:round;stroke-linejoin:round;stroke-miterlimit:10;}
	.st13{fill:none;stroke:#FF0303;stroke-width:0.5122;stroke-linecap:round;stroke-linejoin:round;stroke-miterlimit:10;}
	.st14{fill:none;stroke:#FF0303;stroke-width:0.4891;stroke-linecap:round;stroke-linejoin:round;stroke-miterlimit:10;}
	.st15{fill:none;stroke:#FF0303;stroke-width:0.3371;stroke-linecap:round;stroke-linejoin:round;stroke-miterlimit:10;}
	.st16{fill:none;stroke:#231F20;stroke-width:1.2;stroke-linecap:round;stroke-linejoin:round;stroke-miterlimit:10;}
	.st17{fill:none;stroke:#231F20;stroke-width:0.5;stroke-linecap:round;stroke-linejoin:round;stroke-miterlimit:10;}
	.st18{fill:#231F20;}
</style>
<path class="st18" d="M18.35,13.47c-1.22-1.15-2.73-1.9-4.35-2.19c1.7-0.77,2.89-2.47,2.89-4.45c0-2.7-2.19-4.89-4.89-4.89
	S7.1,4.12,7.1,6.82c0,1.99,1.19,3.69,2.9,4.46C5.98,12,2.93,15.52,2.93,19.75c0,1.29,1.05,2.34,2.34,2.34h7.41
	c0.33,0,0.6-0.27,0.6-0.6s-0.27-0.6-0.6-0.6H5.27c-0.63,0-1.14-0.51-1.14-1.16c0-4.08,3.32-7.4,7.4-7.4h0.93
	c1.89,0,3.69,0.71,5.07,2.01c0.24,0.23,0.62,0.21,0.85-0.03C18.6,14.07,18.59,13.7,18.35,13.47z M8.3,6.82
	c0-2.04,1.66-3.69,3.69-3.69s3.69,1.66,3.69,3.69s-1.66,3.69-3.69,3.69S8.3,8.86,8.3,6.82z"/>
<g>
	<path class="st18" d="M14.87,16.84h5.77c0.33,0,0.6-0.27,0.6-0.6s-0.27-0.6-0.6-0.6h-5.77c-0.33,0-0.6,0.27-0.6,0.6
		S14.54,16.84,14.87,16.84z"/>
	<path class="st18" d="M20.64,18.31h-5.77c-0.33,0-0.6,0.27-0.6,0.6s0.27,0.6,0.6,0.6h5.77c0.33,0,0.6-0.27,0.6-0.6
		S20.97,18.31,20.64,18.31z"/>
	<path class="st18" d="M20.64,20.89h-5.77c-0.33,0-0.6,0.27-0.6,0.6s0.27,0.6,0.6,0.6h5.77c0.33,0,0.6-0.27,0.6-0.6
		S20.97,20.89,20.64,20.89z"/>
</g>
</svg>
