<?xml version="1.0" encoding="utf-8"?>
<!-- Generator: Adobe Illustrator 26.0.1, SVG Export Plug-In . SVG Version: 6.00 Build 0)  -->
<svg version="1.1" id="Layer_1" xmlns="http://www.w3.org/2000/svg" xmlns:xlink="http://www.w3.org/1999/xlink" x="0px" y="0px"
	 viewBox="0 0 24 24" style="enable-background:new 0 0 24 24;" xml:space="preserve">
<style type="text/css">
	.st0{fill:#F7F7F7;}
	.st1{fill:#023154;}
	.st2{fill:none;stroke:#231F20;stroke-width:0.9267;stroke-miterlimit:10;}
	.st3{fill:none;stroke:#FF0303;stroke-width:0.9377;stroke-miterlimit:10;}
	.st4{fill:none;stroke:#FF0303;stroke-width:1.0355;stroke-miterlimit:10;}
	.st5{fill:none;stroke:#FF0303;stroke-width:1.0726;stroke-miterlimit:10;}
	.st6{fill:none;stroke:#FF0303;stroke-miterlimit:10;}
	.st7{fill:none;stroke:#FF0303;stroke-width:0.964;stroke-miterlimit:10;}
	.st8{fill:none;stroke:#FF0303;stroke-width:1.0531;stroke-miterlimit:10;}
	.st9{fill:none;stroke:#FF0303;stroke-width:1.0531;stroke-linecap:round;stroke-linejoin:round;stroke-miterlimit:10;}
	.st10{fill:none;stroke:#FF0303;stroke-width:0.5;stroke-linecap:round;stroke-linejoin:round;stroke-miterlimit:10;}
	.st11{fill:none;stroke:#FF0303;stroke-width:0.6818;stroke-linecap:round;stroke-linejoin:round;stroke-miterlimit:10;}
	.st12{fill:none;stroke:#FF0303;stroke-width:0.6744;stroke-linecap:round;stroke-linejoin:round;stroke-miterlimit:10;}
	.st13{fill:none;stroke:#FF0303;stroke-width:0.5122;stroke-linecap:round;stroke-linejoin:round;stroke-miterlimit:10;}
	.st14{fill:none;stroke:#FF0303;stroke-width:0.4891;stroke-linecap:round;stroke-linejoin:round;stroke-miterlimit:10;}
	.st15{fill:none;stroke:#FF0303;stroke-width:0.3371;stroke-linecap:round;stroke-linejoin:round;stroke-miterlimit:10;}
	.st16{fill:none;stroke:#231F20;stroke-width:1.2;stroke-linecap:round;stroke-linejoin:round;stroke-miterlimit:10;}
	.st17{fill:none;stroke:#231F20;stroke-width:0.5;stroke-linecap:round;stroke-linejoin:round;stroke-miterlimit:10;}
	.st18{fill:#231F20;}
</style>
<path class="st18" d="M20.53,18.88l-2.34-4.47c0.91-1.25,1.45-2.78,1.45-4.45c0-4.18-3.4-7.58-7.58-7.58s-7.58,3.4-7.58,7.58
	c0,1.62,0.51,3.11,1.38,4.35l-2.39,4.57c-0.1,0.18-0.09,0.4,0.01,0.58c0.1,0.18,0.29,0.29,0.49,0.3l1.84,0.08l0.98,1.51
	c0.11,0.17,0.3,0.27,0.5,0.27c0.01,0,0.02,0,0.03,0c0.21-0.01,0.4-0.13,0.5-0.32L10,17.25c0.66,0.19,1.35,0.29,2.06,0.29
	c0.68,0,1.33-0.1,1.95-0.26l2.16,4.02c0.1,0.19,0.29,0.31,0.5,0.32c0.01,0,0.02,0,0.03,0c0.2,0,0.39-0.1,0.5-0.27l0.98-1.51
	l1.84-0.08c0.21-0.01,0.39-0.12,0.49-0.3C20.62,19.28,20.63,19.06,20.53,18.88z M7.24,19.84l-0.6-0.92
	c-0.11-0.16-0.28-0.26-0.48-0.27l-1.2-0.05l1.72-3.3c0.62,0.63,1.36,1.14,2.17,1.52L7.24,19.84z M5.68,9.96
	c0-3.52,2.86-6.38,6.38-6.38s6.38,2.86,6.38,6.38c0,3.52-2.86,6.38-6.38,6.38S5.68,13.48,5.68,9.96z M17.83,18.66
	c-0.19,0.01-0.37,0.11-0.48,0.27l-0.6,0.92l-1.6-2.97c0.82-0.37,1.56-0.87,2.19-1.49l1.68,3.22L17.83,18.66z"/>
<path class="st18" d="M15.42,8.36l-1.63-0.47l-1.4-1.67C12.28,6.08,12.11,6,11.93,6c0,0,0,0,0,0c-0.18,0-0.35,0.08-0.46,0.22
	l-1.26,1.52L8.49,8.38c-0.17,0.06-0.3,0.2-0.36,0.37C8.07,8.91,8.09,9.1,8.19,9.25l0.99,1.6l0.16,2.14
	c0.01,0.18,0.11,0.34,0.25,0.45c0.15,0.1,0.33,0.13,0.51,0.09l1.86-0.52l1.95,0.67c0.06,0.02,0.13,0.03,0.2,0.03
	c0.11,0,0.22-0.03,0.32-0.09c0.15-0.1,0.26-0.26,0.27-0.44l0.22-2.12l0.88-1.86c0.08-0.16,0.08-0.34,0-0.5
	C15.73,8.53,15.59,8.41,15.42,8.36z M13.78,10.63c-0.03,0.06-0.05,0.13-0.05,0.2l-0.15,1.47l-1.41-0.49
	c-0.06-0.02-0.13-0.03-0.2-0.03c-0.05,0-0.11,0.01-0.16,0.02l-1.33,0.37l-0.12-1.56c-0.01-0.1-0.04-0.19-0.09-0.27l-0.68-1.1
	l1.18-0.44c0.1-0.04,0.18-0.1,0.25-0.18l0.91-1.09l1.05,1.26c0.08,0.09,0.18,0.16,0.29,0.19l1.13,0.33L13.78,10.63z"/>
</svg>
