<?xml version="1.0" encoding="utf-8"?>
<!-- Generator: Adobe Illustrator 26.0.1, SVG Export Plug-In . SVG Version: 6.00 Build 0)  -->
<svg version="1.1" id="Layer_1" xmlns="http://www.w3.org/2000/svg" xmlns:xlink="http://www.w3.org/1999/xlink" x="0px" y="0px"
	 viewBox="0 0 24 24" style="enable-background:new 0 0 24 24;" xml:space="preserve">
<style type="text/css">
	.st0{fill:#F7F7F7;}
	.st1{fill:#023154;}
	.st2{fill:none;stroke:#231F20;stroke-width:0.9267;stroke-miterlimit:10;}
	.st3{fill:none;stroke:#FF0303;stroke-width:0.9377;stroke-miterlimit:10;}
	.st4{fill:none;stroke:#FF0303;stroke-width:1.0355;stroke-miterlimit:10;}
	.st5{fill:none;stroke:#FF0303;stroke-width:1.0726;stroke-miterlimit:10;}
	.st6{fill:none;stroke:#FF0303;stroke-miterlimit:10;}
	.st7{fill:none;stroke:#FF0303;stroke-width:0.964;stroke-miterlimit:10;}
	.st8{fill:none;stroke:#FF0303;stroke-width:1.0531;stroke-miterlimit:10;}
	.st9{fill:none;stroke:#FF0303;stroke-width:1.0531;stroke-linecap:round;stroke-linejoin:round;stroke-miterlimit:10;}
	.st10{fill:none;stroke:#FF0303;stroke-width:0.5;stroke-linecap:round;stroke-linejoin:round;stroke-miterlimit:10;}
	.st11{fill:none;stroke:#FF0303;stroke-width:0.6818;stroke-linecap:round;stroke-linejoin:round;stroke-miterlimit:10;}
	.st12{fill:none;stroke:#FF0303;stroke-width:0.6744;stroke-linecap:round;stroke-linejoin:round;stroke-miterlimit:10;}
	.st13{fill:none;stroke:#FF0303;stroke-width:0.5122;stroke-linecap:round;stroke-linejoin:round;stroke-miterlimit:10;}
	.st14{fill:none;stroke:#FF0303;stroke-width:0.4891;stroke-linecap:round;stroke-linejoin:round;stroke-miterlimit:10;}
	.st15{fill:none;stroke:#FF0303;stroke-width:0.3371;stroke-linecap:round;stroke-linejoin:round;stroke-miterlimit:10;}
	.st16{fill:none;stroke:#231F20;stroke-width:1.2;stroke-linecap:round;stroke-linejoin:round;stroke-miterlimit:10;}
	.st17{fill:none;stroke:#231F20;stroke-width:0.5;stroke-linecap:round;stroke-linejoin:round;stroke-miterlimit:10;}
	.st18{fill:#231F20;}
</style>
<g>
	<path class="st18" d="M17.28,3.2h-13c-0.89,0-1.62,0.73-1.62,1.62v13c0,0.89,0.73,1.62,1.62,1.62h2.49c0.33,0,0.6-0.27,0.6-0.6
		s-0.27-0.6-0.6-0.6H4.28c-0.23,0-0.42-0.19-0.42-0.42v-13c0-0.23,0.19-0.42,0.42-0.42h13c0.23,0,0.42,0.19,0.42,0.42v3.54
		c0,0.33,0.27,0.6,0.6,0.6s0.6-0.27,0.6-0.6V4.82C18.89,3.93,18.17,3.2,17.28,3.2z"/>
	<path class="st18" d="M11.93,7.19H6.64c-0.33,0-0.6,0.27-0.6,0.6s0.27,0.6,0.6,0.6h5.28c0.33,0,0.6-0.27,0.6-0.6
		S12.26,7.19,11.93,7.19z"/>
</g>
<path class="st18" d="M20.93,12.84l-6.24-2.09c-0.12-0.04-0.26-0.04-0.38,0l-6.24,2.09c-0.24,0.08-0.41,0.31-0.41,0.57
	c0,0.26,0.16,0.49,0.4,0.57l1.61,0.56v4.3c0,0.17,0.07,0.34,0.2,0.45c0.03,0.02,1.75,1.5,4.54,1.5c1.38,0,3.02-0.36,4.84-1.43
	c0.18-0.11,0.29-0.3,0.29-0.52v-4.37l1.37-0.49c0.24-0.09,0.4-0.31,0.4-0.57C21.34,13.15,21.17,12.92,20.93,12.84z M14.5,11.95
	l4.39,1.47l-4.33,1.54l-4.44-1.54L14.5,11.95z M18.37,18.49c-3.96,2.18-6.73,0.59-7.49,0.06v-3.59l3.49,1.21
	c0.06,0.02,0.13,0.03,0.2,0.03c0.07,0,0.14-0.01,0.2-0.03l3.6-1.28V18.49z"/>
</svg>
