<?xml version="1.0" encoding="utf-8"?>
<!-- Generator: Adobe Illustrator 26.0.1, SVG Export Plug-In . SVG Version: 6.00 Build 0)  -->
<svg version="1.1" id="Layer_1" xmlns="http://www.w3.org/2000/svg" xmlns:xlink="http://www.w3.org/1999/xlink" x="0px" y="0px"
	 viewBox="0 0 24 24" style="enable-background:new 0 0 24 24;" xml:space="preserve">
<style type="text/css">
	.st0{fill:#F7F7F7;}
	.st1{fill:#023154;}
	.st2{fill:none;stroke:#231F20;stroke-width:0.9267;stroke-miterlimit:10;}
	.st3{fill:none;stroke:#FF0303;stroke-width:0.9377;stroke-miterlimit:10;}
	.st4{fill:none;stroke:#FF0303;stroke-width:1.0355;stroke-miterlimit:10;}
	.st5{fill:none;stroke:#FF0303;stroke-width:1.0726;stroke-miterlimit:10;}
	.st6{fill:none;stroke:#FF0303;stroke-miterlimit:10;}
	.st7{fill:none;stroke:#FF0303;stroke-width:0.964;stroke-miterlimit:10;}
	.st8{fill:none;stroke:#FF0303;stroke-width:1.0531;stroke-miterlimit:10;}
	.st9{fill:none;stroke:#FF0303;stroke-width:1.0531;stroke-linecap:round;stroke-linejoin:round;stroke-miterlimit:10;}
	.st10{fill:none;stroke:#FF0303;stroke-width:0.5;stroke-linecap:round;stroke-linejoin:round;stroke-miterlimit:10;}
	.st11{fill:none;stroke:#FF0303;stroke-width:0.6818;stroke-linecap:round;stroke-linejoin:round;stroke-miterlimit:10;}
	.st12{fill:none;stroke:#FF0303;stroke-width:0.6744;stroke-linecap:round;stroke-linejoin:round;stroke-miterlimit:10;}
	.st13{fill:none;stroke:#FF0303;stroke-width:0.5122;stroke-linecap:round;stroke-linejoin:round;stroke-miterlimit:10;}
	.st14{fill:none;stroke:#FF0303;stroke-width:0.4891;stroke-linecap:round;stroke-linejoin:round;stroke-miterlimit:10;}
	.st15{fill:none;stroke:#FF0303;stroke-width:0.3371;stroke-linecap:round;stroke-linejoin:round;stroke-miterlimit:10;}
	.st16{fill:none;stroke:#231F20;stroke-width:1.2;stroke-linecap:round;stroke-linejoin:round;stroke-miterlimit:10;}
	.st17{fill:none;stroke:#231F20;stroke-width:0.5;stroke-linecap:round;stroke-linejoin:round;stroke-miterlimit:10;}
	.st18{fill:#231F20;}
</style>
<path class="st18" d="M18.84,9.51H4.93c-0.33,0-0.6-0.27-0.6-0.6V5.15c0-0.33,0.27-0.6,0.6-0.6h13.9c0.33,0,0.6,0.27,0.6,0.6v3.76
	C19.44,9.24,19.17,9.51,18.84,9.51z M5.53,8.31h12.7V5.75H5.53V8.31z"/>
<g>
	<path class="st18" d="M20.07,1.86H3.93c-1.14,0-2.07,0.93-2.07,2.07v16.15c0,1.14,0.93,2.07,2.07,2.07h16.15
		c1.14,0,2.07-0.93,2.07-2.07V3.93C22.14,2.79,21.21,1.86,20.07,1.86z M20.94,20.07c0,0.48-0.39,0.87-0.87,0.87H3.93
		c-0.48,0-0.87-0.39-0.87-0.87V3.93c0-0.48,0.39-0.87,0.87-0.87h16.15c0.48,0,0.87,0.39,0.87,0.87V20.07z"/>
	<path class="st18" d="M9.05,11.02H4.93c-0.33,0-0.6,0.27-0.6,0.6v7.12c0,0.33,0.27,0.6,0.6,0.6h4.11c0.33,0,0.6-0.27,0.6-0.6v-7.12
		C9.65,11.29,9.38,11.02,9.05,11.02z M8.45,18.14H5.53v-5.92h2.92V18.14z"/>
	<path class="st18" d="M18.84,11.02h-7.39c-0.33,0-0.6,0.27-0.6,0.6v7.12c0,0.33,0.27,0.6,0.6,0.6h7.39c0.33,0,0.6-0.27,0.6-0.6
		v-7.12C19.44,11.29,19.17,11.02,18.84,11.02z M18.24,18.14h-6.19v-5.92h6.19V18.14z"/>
</g>
</svg>
