<?xml version="1.0" encoding="utf-8"?>
<!-- Generator: Adobe Illustrator 26.0.1, SVG Export Plug-In . SVG Version: 6.00 Build 0)  -->
<svg version="1.1" id="Layer_1" xmlns="http://www.w3.org/2000/svg" xmlns:xlink="http://www.w3.org/1999/xlink" x="0px" y="0px"
	 viewBox="0 0 24 24" style="enable-background:new 0 0 24 24;" xml:space="preserve">
<style type="text/css">
	.st0{fill:#F7F7F7;}
	.st1{fill:#023154;}
	.st2{fill:none;stroke:#231F20;stroke-width:0.9267;stroke-miterlimit:10;}
	.st3{fill:none;stroke:#FF0303;stroke-width:0.9377;stroke-miterlimit:10;}
	.st4{fill:none;stroke:#FF0303;stroke-width:1.0355;stroke-miterlimit:10;}
	.st5{fill:none;stroke:#FF0303;stroke-width:1.0726;stroke-miterlimit:10;}
	.st6{fill:none;stroke:#FF0303;stroke-miterlimit:10;}
	.st7{fill:none;stroke:#FF0303;stroke-width:0.964;stroke-miterlimit:10;}
	.st8{fill:none;stroke:#FF0303;stroke-width:1.0531;stroke-miterlimit:10;}
	.st9{fill:none;stroke:#FF0303;stroke-width:1.0531;stroke-linecap:round;stroke-linejoin:round;stroke-miterlimit:10;}
	.st10{fill:none;stroke:#FF0303;stroke-width:0.5;stroke-linecap:round;stroke-linejoin:round;stroke-miterlimit:10;}
	.st11{fill:none;stroke:#FF0303;stroke-width:0.6818;stroke-linecap:round;stroke-linejoin:round;stroke-miterlimit:10;}
	.st12{fill:none;stroke:#FF0303;stroke-width:0.6744;stroke-linecap:round;stroke-linejoin:round;stroke-miterlimit:10;}
	.st13{fill:none;stroke:#FF0303;stroke-width:0.5122;stroke-linecap:round;stroke-linejoin:round;stroke-miterlimit:10;}
	.st14{fill:none;stroke:#FF0303;stroke-width:0.4891;stroke-linecap:round;stroke-linejoin:round;stroke-miterlimit:10;}
	.st15{fill:none;stroke:#FF0303;stroke-width:0.3371;stroke-linecap:round;stroke-linejoin:round;stroke-miterlimit:10;}
	.st16{fill:none;stroke:#231F20;stroke-width:1.2;stroke-linecap:round;stroke-linejoin:round;stroke-miterlimit:10;}
	.st17{fill:none;stroke:#231F20;stroke-width:0.5;stroke-linecap:round;stroke-linejoin:round;stroke-miterlimit:10;}
	.st18{fill:#231F20;}
</style>
<g>
	<path class="st18" d="M17.45,1.1H3.7c-1.37,0-2.48,1.11-2.48,2.49v13.75c0,1.37,1.11,2.49,2.48,2.49h7.73c0.33,0,0.6-0.27,0.6-0.6
		s-0.27-0.6-0.6-0.6H3.7c-0.71,0-1.29-0.58-1.29-1.29V6.12h16.32v5.5c0,0.33,0.27,0.6,0.6,0.6s0.6-0.27,0.6-0.6V3.59
		C19.93,2.22,18.82,1.1,17.45,1.1z M2.42,4.92V3.59c0-0.71,0.58-1.29,1.29-1.29h13.75c0.71,0,1.29,0.58,1.29,1.29v1.32H2.42z"/>
	<path class="st18" d="M5.55,8c0-0.14-0.11-0.25-0.25-0.25H3.6C3.46,7.75,3.35,7.86,3.35,8v1.7c0,0.14,0.11,0.25,0.25,0.25h1.7
		c0.14,0,0.25-0.11,0.25-0.25V8z M5.05,9.45h-1.2v-1.2h1.2V9.45z"/>
	<path class="st18" d="M9.59,8c0-0.14-0.11-0.25-0.25-0.25h-1.7C7.5,7.75,7.39,7.86,7.39,8v1.7c0,0.14,0.11,0.25,0.25,0.25h1.7
		c0.14,0,0.25-0.11,0.25-0.25V8z M9.09,9.45h-1.2v-1.2h1.2V9.45z"/>
	<path class="st18" d="M13.38,7.75h-1.7c-0.14,0-0.25,0.11-0.25,0.25v1.7c0,0.14,0.11,0.25,0.25,0.25h1.7
		c0.14,0,0.25-0.11,0.25-0.25V8C13.63,7.86,13.52,7.75,13.38,7.75z M13.13,9.45h-1.2v-1.2h1.2V9.45z"/>
	<path class="st18" d="M17.42,7.75h-1.7c-0.14,0-0.25,0.11-0.25,0.25v1.7c0,0.14,0.11,0.25,0.25,0.25h1.7
		c0.14,0,0.25-0.11,0.25-0.25V8C17.67,7.86,17.55,7.75,17.42,7.75z M17.17,9.45h-1.2v-1.2h1.2V9.45z"/>
	<path class="st18" d="M5.55,11.08c0-0.14-0.11-0.25-0.25-0.25H3.6c-0.14,0-0.25,0.11-0.25,0.25v1.7c0,0.14,0.11,0.25,0.25,0.25h1.7
		c0.14,0,0.25-0.11,0.25-0.25V11.08z M5.05,12.54h-1.2v-1.2h1.2V12.54z"/>
	<path class="st18" d="M9.59,11.08c0-0.14-0.11-0.25-0.25-0.25h-1.7c-0.14,0-0.25,0.11-0.25,0.25v1.7c0,0.14,0.11,0.25,0.25,0.25
		h1.7c0.14,0,0.25-0.11,0.25-0.25V11.08z M9.09,12.54h-1.2v-1.2h1.2V12.54z"/>
	<path class="st18" d="M5.3,14.02H3.6c-0.14,0-0.25,0.11-0.25,0.25v1.7c0,0.14,0.11,0.25,0.25,0.25h1.7c0.14,0,0.25-0.11,0.25-0.25
		v-1.7C5.55,14.13,5.44,14.02,5.3,14.02z M5.05,15.72h-1.2v-1.2h1.2V15.72z"/>
	<path class="st18" d="M9.34,14.02h-1.7c-0.14,0-0.25,0.11-0.25,0.25v1.7c0,0.14,0.11,0.25,0.25,0.25h1.7
		c0.14,0,0.25-0.11,0.25-0.25v-1.7C9.59,14.13,9.48,14.02,9.34,14.02z M9.09,15.72h-1.2v-1.2h1.2V15.72z"/>
	<path class="st18" d="M13.38,10.83h-1.7c-0.14,0-0.25,0.11-0.25,0.25v1.7c0,0.14,0.11,0.25,0.25,0.25h1.7
		c0.14,0,0.25-0.11,0.25-0.25v-1.7C13.63,10.94,13.52,10.83,13.38,10.83z M13.13,12.54h-1.2v-1.2h1.2V12.54z"/>
</g>
<g>
	<path class="st18" d="M18,13.33c-2.64,0-4.78,2.15-4.78,4.78S15.36,22.9,18,22.9c2.64,0,4.78-2.15,4.78-4.78S20.64,13.33,18,13.33z
		 M18,21.69c-1.98,0-3.58-1.61-3.58-3.58s1.61-3.58,3.58-3.58c1.98,0,3.58,1.61,3.58,3.58S19.98,21.69,18,21.69z"/>
	<path class="st18" d="M18,14.97c-0.33,0-0.6,0.27-0.6,0.6v2.38l-1.1,1.14c-0.23,0.24-0.22,0.62,0.01,0.85
		c0.12,0.11,0.27,0.17,0.42,0.17c0.16,0,0.31-0.06,0.43-0.18l1.27-1.32c0.11-0.11,0.17-0.26,0.17-0.42v-2.62
		C18.6,15.24,18.33,14.97,18,14.97z"/>
</g>
</svg>
