<?xml version="1.0" encoding="utf-8"?>
<!-- Generator: Adobe Illustrator 26.0.1, SVG Export Plug-In . SVG Version: 6.00 Build 0)  -->
<svg version="1.1" id="Layer_1" xmlns="http://www.w3.org/2000/svg" xmlns:xlink="http://www.w3.org/1999/xlink" x="0px" y="0px"
	 viewBox="0 0 24 24" style="enable-background:new 0 0 24 24;" xml:space="preserve">
<style type="text/css">
	.st0{fill:#F7F7F7;}
	.st1{fill:#023154;}
	.st2{fill:none;stroke:#231F20;stroke-width:0.9267;stroke-miterlimit:10;}
	.st3{fill:none;stroke:#FF0303;stroke-width:0.9377;stroke-miterlimit:10;}
	.st4{fill:none;stroke:#FF0303;stroke-width:1.0355;stroke-miterlimit:10;}
	.st5{fill:none;stroke:#FF0303;stroke-width:1.0726;stroke-miterlimit:10;}
	.st6{fill:none;stroke:#FF0303;stroke-miterlimit:10;}
	.st7{fill:none;stroke:#FF0303;stroke-width:0.964;stroke-miterlimit:10;}
	.st8{fill:none;stroke:#FF0303;stroke-width:1.0531;stroke-miterlimit:10;}
	.st9{fill:none;stroke:#FF0303;stroke-width:1.0531;stroke-linecap:round;stroke-linejoin:round;stroke-miterlimit:10;}
	.st10{fill:none;stroke:#FF0303;stroke-width:0.5;stroke-linecap:round;stroke-linejoin:round;stroke-miterlimit:10;}
	.st11{fill:none;stroke:#FF0303;stroke-width:0.6818;stroke-linecap:round;stroke-linejoin:round;stroke-miterlimit:10;}
	.st12{fill:none;stroke:#FF0303;stroke-width:0.6744;stroke-linecap:round;stroke-linejoin:round;stroke-miterlimit:10;}
	.st13{fill:none;stroke:#FF0303;stroke-width:0.5122;stroke-linecap:round;stroke-linejoin:round;stroke-miterlimit:10;}
	.st14{fill:none;stroke:#FF0303;stroke-width:0.4891;stroke-linecap:round;stroke-linejoin:round;stroke-miterlimit:10;}
	.st15{fill:none;stroke:#FF0303;stroke-width:0.3371;stroke-linecap:round;stroke-linejoin:round;stroke-miterlimit:10;}
	.st16{fill:none;stroke:#231F20;stroke-width:1.2;stroke-linecap:round;stroke-linejoin:round;stroke-miterlimit:10;}
	.st17{fill:none;stroke:#231F20;stroke-width:0.5;stroke-linecap:round;stroke-linejoin:round;stroke-miterlimit:10;}
	.st18{fill:#231F20;}
</style>
<g>
	<path class="st18" d="M11.75,10.39c2.35,0,4.26-1.91,4.26-4.27s-1.91-4.27-4.26-4.27S7.49,3.77,7.49,6.12S9.4,10.39,11.75,10.39z
		 M11.75,3.06c1.69,0,3.07,1.38,3.07,3.06s-1.38,3.06-3.07,3.06S8.69,7.81,8.69,6.12S10.06,3.06,11.75,3.06z"/>
	<path class="st18" d="M16.69,12.06H7.31c-1.36,0-2.47,1.11-2.47,2.47v6.82c0,0.33,0.27,0.6,0.6,0.6s0.6-0.27,0.6-0.6v-6.82
		c0-0.7,0.57-1.27,1.27-1.27h9.38c0.7,0,1.27,0.57,1.27,1.27v7.02c0,0.33,0.27,0.6,0.6,0.6s0.6-0.27,0.6-0.6v-7.02
		C19.15,13.17,18.05,12.06,16.69,12.06z"/>
</g>
<path class="st18" d="M11.93,21.51c-0.06,0-0.12-0.01-0.18-0.03c-0.12-0.04-3.08-0.99-3.5-4.14c-0.02-0.15-0.16-1.5,0.78-2.19
	c0.67-0.49,1.64-0.47,2.9,0.07c1.25-0.54,2.23-0.56,2.9-0.07c0.94,0.69,0.8,2.03,0.78,2.18c-0.42,3.15-3.37,4.1-3.5,4.14
	C12.05,21.5,11.99,21.51,11.93,21.51z M10.2,16.01c-0.19,0-0.35,0.04-0.46,0.12c-0.33,0.24-0.32,0.9-0.3,1.06
	c0.27,2.01,1.93,2.85,2.48,3.08c0.56-0.23,2.21-1.07,2.48-3.08c0.02-0.2,0.02-0.83-0.3-1.06c-0.31-0.22-0.99-0.12-1.86,0.27
	c-0.08,0.04-0.16,0.05-0.25,0.05h-0.15c-0.09,0-0.17-0.02-0.25-0.05C11.04,16.15,10.55,16.01,10.2,16.01z"/>
</svg>
