<svg xmlns="http://www.w3.org/2000/svg" viewBox="0 0 800 600" width="100%" height="100%">
  <defs>
    <style type="text/css">
      <![CDATA[
      /* ---- CORE ANIMATIONS ---- */

      /* Continuous Data Flow */
      .flow-line {
        stroke-dasharray: 12 12;
        animation: dataFlow 1.5s linear infinite;
      }
      .flow-line-reverse {
        stroke-dasharray: 12 12;
        animation: dataFlowReverse 1.5s linear infinite;
      }
      @keyframes dataFlow {
        to { stroke-dashoffset: -24; }
      }
      @keyframes dataFlowReverse {
        to { stroke-dashoffset: 24; }
      }

      /* Factory Floor Conveyor Belt / Data Bus */
      .conveyor-flow {
        stroke-dasharray: 20 15;
        animation: dataFlowReverse 2s linear infinite;
      }

      /* Gear Rotations (Automation) */
      .spin {
        transform-origin: center;
        animation: spinRight 10s linear infinite;
      }
      .spin-reverse {
        transform-origin: center;
        animation: spinLeft 12s linear infinite;
      }
      @keyframes spinRight { 100% { transform: rotate(360deg); } }
      @keyframes spinLeft { 100% { transform: rotate(-360deg); } }

      /* Floating Elements (Glassy Cards) */
      .float-slow { animation: floatBox 5s ease-in-out infinite alternate; }
      .float-fast { animation: floatBox 3.5s ease-in-out infinite alternate-reverse; }
      
      @keyframes floatBox {
        0% { transform: translateY(0px); }
        100% { transform: translateY(-12px); }
      }

      /* Pulsing Cores & Radio Waves */
      .pulse {
        animation: pulseScale 2s infinite alternate;
        transform-origin: center;
      }
      .radio-wave {
        animation: waveEmit 2s ease-out infinite;
        transform-origin: 400px 100px;
      }
      .radio-wave-delay {
        animation: waveEmit 2s ease-out 1s infinite;
        transform-origin: 400px 100px;
      }
      @keyframes pulseScale {
        0% { transform: scale(0.85); opacity: 0.7; }
        100% { transform: scale(1.15); opacity: 1; }
      }
      @keyframes waveEmit {
        0% { transform: scale(0.5); opacity: 1; stroke-width: 6; }
        100% { transform: scale(2); opacity: 0; stroke-width: 2; }
      }
      
      /* Chart Bar Growth Animation */
      .grow-bar {
        animation: growUp 3s cubic-bezier(0.25, 1, 0.5, 1) infinite alternate;
        transform-origin: bottom;
      }
      @keyframes growUp {
        0%, 20% { transform: scaleY(0.2); }
        80%, 100% { transform: scaleY(1); }
      }
      ]]>
    </style>
  </defs>

  <g>
    <line x1="60" y1="480" x2="740" y2="480" stroke="#2D3436" stroke-width="8" stroke-linecap="round" />

    <path d="M 110 480 L 110 280 L 200 220 L 200 270 L 290 210 L 290 480" fill="none" stroke="#2D3436" stroke-width="8" stroke-linejoin="round" />
    
    <path d="M 690 480 L 690 280 L 600 220 L 600 270 L 510 210 L 510 480" fill="none" stroke="#2D3436" stroke-width="8" stroke-linejoin="round" />

    <rect x="290" y="150" width="220" height="330" rx="15" fill="none" stroke="#2D3436" stroke-width="8" stroke-linejoin="round" />
    
    <line x1="400" y1="150" x2="400" y2="100" stroke="#2D3436" stroke-width="8" stroke-linecap="round" />
    <circle cx="400" cy="100" r="8" fill="#FDCB6E" />
    
    <path class="radio-wave" d="M 375 85 Q 400 65 425 85" fill="none" stroke="#00CEC9" stroke-linecap="round" />
    <path class="radio-wave-delay" d="M 375 85 Q 400 65 425 85" fill="none" stroke="#00CEC9" stroke-linecap="round" />
  </g>

  <g>
    <path d="M 265 310 L 330 310" fill="none" stroke="#DFE6E9" stroke-width="8" stroke-linecap="round" />
    <path class="flow-line" d="M 265 310 L 330 310" fill="none" stroke="#FD79A8" stroke-width="8" stroke-linecap="round" />

    <path d="M 470 310 L 535 310" fill="none" stroke="#DFE6E9" stroke-width="8" stroke-linecap="round" />
    <path class="flow-line" d="M 470 310 L 535 310" fill="none" stroke="#00CEC9" stroke-width="8" stroke-linecap="round" />

    <line x1="130" y1="450" x2="670" y2="450" stroke="#DFE6E9" stroke-width="12" stroke-linecap="round" />
    <line class="conveyor-flow" x1="130" y1="450" x2="670" y2="450" stroke="#6C5CE7" stroke-width="12" stroke-linecap="round" />
  </g>

  <g transform="translate(400, 310)">
    
    <g transform="translate(48, -48)">
      <g class="spin-reverse">
        <circle cx="0" cy="0" r="25" fill="none" stroke="#FD79A8" stroke-width="10" />
        <line x1="0" y1="-32" x2="0" y2="-18" stroke="#FD79A8" stroke-width="8" stroke-linecap="round" />
        <line x1="0" y1="18" x2="0" y2="32" stroke="#FD79A8" stroke-width="8" stroke-linecap="round" />
        <line x1="-32" y1="0" x2="-18" y2="0" stroke="#FD79A8" stroke-width="8" stroke-linecap="round" />
        <line x1="18" y1="0" x2="32" y2="0" stroke="#FD79A8" stroke-width="8" stroke-linecap="round" />
        <line x1="-23" y1="-23" x2="-13" y2="-13" stroke="#FD79A8" stroke-width="8" stroke-linecap="round" />
        <line x1="13" y1="13" x2="23" y2="23" stroke="#FD79A8" stroke-width="8" stroke-linecap="round" />
        <line x1="-23" y1="23" x2="-13" y2="13" stroke="#FD79A8" stroke-width="8" stroke-linecap="round" />
        <line x1="13" y1="-13" x2="23" y2="-23" stroke="#FD79A8" stroke-width="8" stroke-linecap="round" />
      </g>
      <circle cx="0" cy="0" r="8" fill="#2D3436" />
    </g>

    <g class="spin">
      <circle cx="0" cy="0" r="45" fill="none" stroke="#6C5CE7" stroke-width="14" />
      <line x1="0" y1="-56" x2="0" y2="-34" stroke="#6C5CE7" stroke-width="12" stroke-linecap="round" />
      <line x1="0" y1="34" x2="0" y2="56" stroke="#6C5CE7" stroke-width="12" stroke-linecap="round" />
      <line x1="-56" y1="0" x2="-34" y2="0" stroke="#6C5CE7" stroke-width="12" stroke-linecap="round" />
      <line x1="34" y1="0" x2="56" y2="0" stroke="#6C5CE7" stroke-width="12" stroke-linecap="round" />
      <line x1="-40" y1="-40" x2="-24" y2="-24" stroke="#6C5CE7" stroke-width="12" stroke-linecap="round" />
      <line x1="24" y1="24" x2="40" y2="40" stroke="#6C5CE7" stroke-width="12" stroke-linecap="round" />
      <line x1="-40" y1="40" x2="-24" y2="24" stroke="#6C5CE7" stroke-width="12" stroke-linecap="round" />
      <line x1="24" y1="-24" x2="40" y2="-40" stroke="#6C5CE7" stroke-width="12" stroke-linecap="round" />
    </g>

    <g class="pulse">
      <circle cx="0" cy="0" r="22" fill="#E1F5FE" />
      <circle cx="0" cy="0" r="14" fill="none" stroke="#00B894" stroke-width="4" />
      <circle cx="0" cy="0" r="6" fill="#00B894" />
    </g>
  </g>

  <g transform="translate(135, 260)">
    <g class="float-slow">
      <rect x="0" y="0" width="130" height="150" rx="16" fill="#FFEAA7" opacity="0.85" />
      
      <circle cx="35" cy="35" r="15" fill="none" stroke="#FD79A8" stroke-width="4" />
      <circle cx="35" cy="35" r="6" fill="#FD79A8" />
      <path d="M 45 25 L 35 35" fill="none" stroke="#2D3436" stroke-width="3" stroke-linecap="round" />
      <polygon points="35,35 42,32 38,28" fill="#2D3436" />

      <g transform="translate(0, 60)">
        <rect x="25" y="50" width="18" height="30" rx="4" fill="#FDCB6E" class="grow-bar" />
        <rect x="55" y="30" width="18" height="50" rx="4" fill="#FF7675" class="grow-bar" style="animation-delay: 0.2s;" />
        <rect x="85" y="10" width="18" height="70" rx="4" fill="#E84393" class="grow-bar" style="animation-delay: 0.4s;" />
        
        <path d="M 25 50 L 55 25 L 85 5" fill="none" stroke="#2D3436" stroke-width="4" stroke-linecap="round" stroke-linejoin="round" />
        <circle cx="85" cy="5" r="4" fill="#2D3436" />
      </g>
    </g>
  </g>

  <g transform="translate(535, 260)">
    <g class="float-fast">
      <rect x="0" y="0" width="130" height="150" rx="16" fill="#E0F7FA" opacity="0.85" />
      
      <g transform="translate(15, 20)">
        <path d="M 50 15 L 20 60 M 50 15 L 80 60 M 20 60 L 50 100 M 80 60 L 50 100 L 20 60 M 20 60 L 80 60" fill="none" stroke="#00CEC9" stroke-width="4" stroke-linejoin="round" />
        
        <g class="pulse" style="transform-origin: 50px 15px;">
          <circle cx="50" cy="15" r="10" fill="#0984E3" />
          <circle cx="50" cy="15" r="3" fill="#FFF" />
        </g>
        
        <g class="pulse" style="transform-origin: 20px 60px; animation-delay: 0.5s;">
          <circle cx="20" cy="60" r="10" fill="#0984E3" />
          <circle cx="20" cy="60" r="3" fill="#FFF" />
        </g>
        
        <g class="pulse" style="transform-origin: 80px 60px; animation-delay: 1s;">
          <circle cx="80" cy="60" r="10" fill="#0984E3" />
          <circle cx="80" cy="60" r="3" fill="#FFF" />
        </g>
        
        <g class="pulse" style="transform-origin: 50px 100px; animation-delay: 1.5s;">
          <circle cx="50" cy="100" r="10" fill="#00B894" /> <circle cx="50" cy="100" r="3" fill="#FFF" />
        </g>
      </g>
    </g>
  </g>

  <circle cx="340" cy="190" r="5" fill="#FDCB6E" opacity="0.8" class="float-slow" />
  <rect x="440" y="180" width="10" height="10" rx="2" fill="#FD79A8" opacity="0.6" transform="rotate(25 445 185)" class="float-fast" />

</svg>