<svg width="600" height="646" viewBox="0 0 600 646" fill="none" xmlns="http://www.w3.org/2000/svg">
  <defs>
    <linearGradient id="gPhone" x1="220" y1="120" x2="385" y2="520" gradientUnits="userSpaceOnUse">
      <stop offset="0" stop-color="#7C3AED"/>
      <stop offset="0.55" stop-color="#8B5CF6"/>
      <stop offset="1" stop-color="#22D3EE"/>
    </linearGradient>
    <linearGradient id="gScreen" x1="235" y1="140" x2="355" y2="470" gradientUnits="userSpaceOnUse">
      <stop offset="0" stop-color="#F3E8FF" stop-opacity="0.98"/>
      <stop offset="1" stop-color="#EDE9FE" stop-opacity="0.96"/>
    </linearGradient>
    <linearGradient id="gCard" x1="0" y1="0" x2="1" y2="1">
      <stop offset="0" stop-color="#FFFFFF" stop-opacity="0.96"/>
      <stop offset="1" stop-color="#DDD6FE" stop-opacity="0.78"/>
    </linearGradient>
    <linearGradient id="gCyan" x1="0" y1="0" x2="1" y2="0">
      <stop offset="0" stop-color="#06B6D4"/>
      <stop offset="1" stop-color="#67E8F9"/>
    </linearGradient>
    <linearGradient id="gPurple" x1="0" y1="0" x2="1" y2="1">
      <stop offset="0" stop-color="#9333EA"/>
      <stop offset="1" stop-color="#C084FC"/>
    </linearGradient>
    <filter id="softGlow" x="-40%" y="-40%" width="180%" height="180%">
      <feGaussianBlur stdDeviation="12" result="blur"/>
      <feColorMatrix in="blur" type="matrix" values="1 0 0 0 0  0 1 0 0 0  0 1 0 0 0  0 0 0 0.22 0"/>
    </filter>
    <filter id="shadow" x="-30%" y="-30%" width="160%" height="160%">
      <feDropShadow dx="0" dy="10" stdDeviation="18" flood-color="#6D28D9" flood-opacity="0.22"/>
    </filter>
    <pattern id="dots" width="14" height="14" patternUnits="userSpaceOnUse">
      <circle cx="2" cy="2" r="1.4" fill="#C4B5FD" fill-opacity="0.55"/>
    </pattern>
    <style>
      .dash { stroke-dasharray: 8 9; animation: dashMove 10s linear infinite; }
      .floatA { animation: floatA 6.2s ease-in-out infinite; transform-origin: center; }
      .floatB { animation: floatB 7.1s ease-in-out infinite; transform-origin: center; }
      .floatC { animation: floatC 5.6s ease-in-out infinite; transform-origin: center; }
      .pulse { animation: pulse 3s ease-in-out infinite; transform-origin: center; }
      .pulse2 { animation: pulse2 4s ease-in-out infinite; transform-origin: center; }
      .sliderDot1 { animation: slide1 4.5s ease-in-out infinite; }
      .sliderDot2 { animation: slide2 4.5s ease-in-out infinite; }
      .sliderDot3 { animation: slide3 4.5s ease-in-out infinite; }
      .screenShine { animation: shine 5s linear infinite; }
      .iconSpin { animation: spinSlow 18s linear infinite; transform-origin: 300px 315px; }
      .tap { animation: tap 2.8s ease-in-out infinite; transform-origin: center; }
      @keyframes dashMove { from { stroke-dashoffset: 0; } to { stroke-dashoffset: -220; } }
      @keyframes floatA { 0%,100% { transform: translateY(0px);} 50% { transform: translateY(-10px);} }
      @keyframes floatB { 0%,100% { transform: translateY(0px) translateX(0px);} 50% { transform: translateY(10px) translateX(4px);} }
      @keyframes floatC { 0%,100% { transform: translateY(0px) translateX(0px);} 50% { transform: translateY(-7px) translateX(-5px);} }
      @keyframes pulse { 0%,100% { opacity: 0.55; transform: scale(1);} 50% { opacity: 0.95; transform: scale(1.08);} }
      @keyframes pulse2 { 0%,100% { opacity: 0.25; transform: scale(1);} 50% { opacity: 0.6; transform: scale(1.2);} }
      @keyframes slide1 { 0%,100% { cx: 452; } 50% { cx: 520; } }
      @keyframes slide2 { 0%,100% { cx: 470; } 50% { cx: 430; } }
      @keyframes slide3 { 0%,100% { cx: 505; } 50% { cx: 455; } }
      @keyframes shine { 0% { transform: translateX(-130px) rotate(12deg);} 100% { transform: translateX(280px) rotate(12deg);} }
      @keyframes spinSlow { from { transform: rotate(0deg);} to { transform: rotate(360deg);} }
      @keyframes tap { 0%,100% { transform: scale(1);} 50% { transform: scale(0.92);} }
      text { font-family: Inter, Arial, Helvetica, sans-serif; }
    </style>
  </defs>

  <!-- ambient translucent blobs -->
  <g>
    <circle class="pulse2" cx="66" cy="78" r="44" fill="#A855F7" fill-opacity="0.24"/>
    <circle class="pulse2" cx="104" cy="530" r="34" fill="#8B5CF6" fill-opacity="0.22" style="animation-delay:-1s"/>
    <circle class="pulse2" cx="547" cy="118" r="28" fill="#A855F7" fill-opacity="0.20" style="animation-delay:-2s"/>
    <circle class="pulse2" cx="533" cy="560" r="36" fill="#9333EA" fill-opacity="0.18" style="animation-delay:-0.6s"/>
    <circle class="pulse2" cx="84" cy="314" r="16" fill="#22D3EE" fill-opacity="0.16" style="animation-delay:-1.3s"/>
    <circle class="pulse2" cx="496" cy="294" r="20" fill="#22D3EE" fill-opacity="0.18" style="animation-delay:-2.3s"/>
  </g>

  <!-- dotted mesh -->
  <rect x="86" y="118" width="88" height="64" rx="10" fill="url(#dots)" opacity="0.7"/>
  <rect x="438" y="178" width="84" height="74" rx="10" fill="url(#dots)" opacity="0.68"/>
  <rect x="214" y="535" width="112" height="44" rx="10" fill="url(#dots)" opacity="0.55"/>

  <!-- connection frame -->
  <path class="dash" d="M92 164C92 147.431 105.431 134 122 134H204V94H400M406 94H514C530.569 94 544 107.431 544 124V226M544 428V494C544 510.569 530.569 524 514 524H380V556H122C105.431 556 92 542.569 92 526V164Z" stroke="#E9D5FF" stroke-opacity="0.85" stroke-width="2" stroke-linecap="round"/>
  <rect x="198" y="86" width="20" height="20" rx="3" fill="#F8FAFC" fill-opacity="0.95" class="floatA"/>
  <rect x="370" y="548" width="20" height="20" rx="3" fill="#F8FAFC" fill-opacity="0.95" class="floatB"/>

  <!-- phone glow -->
  <rect x="205" y="116" width="190" height="410" rx="44" fill="url(#gPhone)" opacity="0.35" filter="url(#softGlow)"/>

  <!-- phone body -->
  <g filter="url(#shadow)">
    <rect x="198" y="110" width="204" height="420" rx="42" fill="url(#gPhone)" class="floatA"/>
    <rect x="216" y="134" width="168" height="374" rx="28" fill="url(#gScreen)"/>
    <rect x="274" y="122" width="52" height="6" rx="3" fill="#F5F3FF" fill-opacity="0.95"/>
    <circle cx="300" cy="490" r="15" fill="#F8FAFC" fill-opacity="0.96" class="tap"/>
  </g>

  <!-- shine sweep -->
  <g class="screenShine" opacity="0.38">
    <rect x="188" y="96" width="54" height="450" transform="rotate(12 188 96)" fill="#FFFFFF" fill-opacity="0.32"/>
  </g>

  <!-- central UI content -->
  <g>
    <g class="iconSpin" opacity="0.25">
      <circle cx="300" cy="315" r="66" stroke="#C084FC" stroke-width="1.4" stroke-dasharray="3 8"/>
      <circle cx="300" cy="315" r="86" stroke="#A78BFA" stroke-width="1" stroke-dasharray="2 10"/>
    </g>
    <path d="M300 205C300 190 289 187 289 173C289 164 294.8 158 300 158C305.2 158 311 164 311 173C311 187 300 190 300 205ZM295 212H305M293 220H307" stroke="#6D28D9" stroke-width="3.2" stroke-linecap="round" stroke-linejoin="round" class="floatC"/>
    <text x="300" y="300" text-anchor="middle" font-size="30" font-weight="800" fill="#4C1D95">UI/UX</text>
    <text x="300" y="332" text-anchor="middle" font-size="14" font-weight="600" fill="#7C3AED" opacity="0.85">Flow • Clarity • Delight</text>
    <rect x="273" y="350" width="54" height="6" rx="3" fill="#E9D5FF"/>
    <rect x="282" y="362" width="36" height="6" rx="3" fill="#DDD6FE"/>
  </g>

  <!-- bottom nav -->
  <g class="floatB">
    <circle cx="255" cy="430" r="16" fill="#FFFFFF" fill-opacity="0.92"/>
    <circle cx="285" cy="430" r="16" fill="#FFFFFF" fill-opacity="0.92"/>
    <circle cx="315" cy="430" r="16" fill="#FFFFFF" fill-opacity="0.92"/>
    <circle cx="345" cy="430" r="16" fill="#FFFFFF" fill-opacity="0.92"/>
    <circle cx="255" cy="430" r="4.2" fill="#22D3EE"/>
    <path d="M281 430l3 3 6-7" stroke="#6D28D9" stroke-width="2.2" stroke-linecap="round" stroke-linejoin="round"/>
    <path d="M315 423l2.3 4.7 5.2.8-3.8 3.7.9 5.2-4.6-2.5-4.7 2.5.9-5.2-3.8-3.7 5.2-.8 2.4-4.7Z" stroke="#7C3AED" stroke-width="1.6" fill="none" stroke-linejoin="round"/>
    <path d="M345 423V430M345 430l4 4M345 430l-4 4" stroke="#6D28D9" stroke-width="2" stroke-linecap="round"/>
  </g>

  <!-- left controls -->
  <g class="floatC" filter="url(#shadow)">
    <rect x="66" y="145" width="82" height="34" rx="17" fill="url(#gCyan)"/>
    <circle cx="89" cy="162" r="12" fill="#F8FAFC" fill-opacity="0.95" class="pulse"/>
    <rect x="66" y="195" width="82" height="34" rx="17" fill="url(#gCyan)"/>
    <circle cx="126" cy="212" r="12" fill="#F8FAFC" fill-opacity="0.95" class="pulse" style="animation-delay:-1.2s"/>
    <rect x="69" y="258" width="46" height="6" rx="3" fill="#F8FAFC" fill-opacity="0.95"/>
    <rect x="69" y="271" width="46" height="6" rx="3" fill="#F8FAFC" fill-opacity="0.8"/>
    <rect x="69" y="284" width="36" height="6" rx="3" fill="#F8FAFC" fill-opacity="0.65"/>
  </g>

  <!-- left insight card -->
  <g class="floatA" filter="url(#shadow)">
    <rect x="78" y="315" width="112" height="118" rx="16" fill="url(#gCard)" opacity="0.82"/>
    <rect x="98" y="344" width="68" height="5" rx="2.5" fill="#F5F3FF" fill-opacity="0.96"/>
    <rect x="98" y="358" width="72" height="5" rx="2.5" fill="#E9D5FF"/>
    <rect x="98" y="372" width="76" height="5" rx="2.5" fill="#DDD6FE"/>
    <rect x="98" y="386" width="58" height="5" rx="2.5" fill="#E9D5FF" opacity="0.9"/>
    <rect x="98" y="400" width="50" height="5" rx="2.5" fill="#DDD6FE" opacity="0.7"/>
  </g>

  <!-- top left accessibility card -->
  <g class="floatB" filter="url(#shadow)">
    <rect x="168" y="178" width="78" height="78" rx="18" fill="url(#gCard)"/>
    <path d="M186 216c12-12 30-12 42 0M190 220c10-8 22-8 32 0M204 216l-9 12M213 204l-9 12" stroke="#6D28D9" stroke-width="2.2" stroke-linecap="round" stroke-linejoin="round"/>
  </g>

  <!-- top right media card -->
  <g class="floatC" filter="url(#shadow)">
    <rect x="400" y="88" width="118" height="92" rx="22" fill="#2E1065" fill-opacity="0.58"/>
    <rect x="426" y="104" width="74" height="52" rx="16" fill="#F8FAFC" fill-opacity="0.72"/>
    <path d="M455 120l18 10-18 10V120Z" fill="#4C1D95"/>
    <circle cx="447" cy="165" r="3.5" fill="#F8FAFC"/>
    <circle cx="462" cy="165" r="3.5" fill="#F8FAFC" fill-opacity="0.85"/>
    <circle cx="477" cy="165" r="3.5" fill="#F8FAFC" fill-opacity="0.7"/>
  </g>

  <!-- right slider set -->
  <g class="floatA" filter="url(#shadow)">
    <rect x="414" y="225" width="122" height="30" rx="15" fill="url(#gCyan)"/>
    <line x1="437" y1="240" x2="518" y2="240" stroke="#6D28D9" stroke-width="2.3" stroke-linecap="round" opacity="0.65"/>
    <circle class="sliderDot1" cx="452" cy="240" r="8" fill="#F8FAFC"/>

    <rect x="414" y="276" width="122" height="30" rx="15" fill="url(#gCyan)"/>
    <line x1="437" y1="291" x2="518" y2="291" stroke="#6D28D9" stroke-width="2.3" stroke-linecap="round" opacity="0.65"/>
    <circle class="sliderDot2" cx="470" cy="291" r="8" fill="#F8FAFC"/>

    <rect x="414" y="327" width="122" height="30" rx="15" fill="url(#gCyan)"/>
    <line x1="437" y1="342" x2="518" y2="342" stroke="#6D28D9" stroke-width="2.3" stroke-linecap="round" opacity="0.65"/>
    <circle class="sliderDot3" cx="505" cy="342" r="8" fill="#F8FAFC"/>
  </g>

  <!-- right round control -->
  <g class="floatB" filter="url(#shadow)">
    <rect x="430" y="396" width="96" height="104" rx="24" fill="url(#gPurple)" opacity="0.88"/>
    <circle cx="478" cy="446" r="26" fill="#F8FAFC" fill-opacity="0.92" class="pulse"/>
    <circle cx="478" cy="446" r="14" fill="#EEF2FF" fill-opacity="0.7"/>
    <path d="M451 484l-8-5v10l8-5Zm53 0 8-5v10l-8-5ZM475 476v16M482 476v16" stroke="#F8FAFC" stroke-width="2" stroke-linecap="round" stroke-linejoin="round"/>
  </g>

  <!-- bottom left cloud sync -->
  <g class="floatC">
    <path d="M92 503c0-13 10-23 23-23 4 0 8 1 11 3 5-12 17-21 31-21 18 0 33 13 35 31 13 1 23 11 23 25 0 15-12 27-27 27h-70c-15 0-26-11-26-25 0-7 3-13 8-17 1 0 1 0 2 0Z" fill="#F8FAFC" fill-opacity="0.94"/>
    <path d="M126 518v-24M126 494l-8 8M126 494l8 8M156 518v-24M156 494l-8 8M156 494l8 8" stroke="#6D28D9" stroke-width="3" stroke-linecap="round" stroke-linejoin="round"/>
  </g>

  <!-- spark nodes -->
  <g>
    <circle class="pulse" cx="55" cy="286" r="4" fill="#F8FAFC"/>
    <circle class="pulse" cx="76" cy="286" r="4" fill="#F8FAFC" style="animation-delay:-0.4s"/>
    <circle class="pulse" cx="97" cy="286" r="4" fill="#F8FAFC" style="animation-delay:-0.8s"/>
    <circle class="pulse" cx="390" cy="105" r="3.5" fill="#22D3EE"/>
    <circle class="pulse" cx="403" cy="105" r="3.5" fill="#67E8F9" style="animation-delay:-0.6s"/>
    <circle class="pulse" cx="416" cy="105" r="3.5" fill="#C084FC" style="animation-delay:-1.1s"/>
  </g>
</svg>
