<svg xmlns="http://www.w3.org/2000/svg" viewBox="0 0 600 646" width="600" height="646">
  <defs>

    <linearGradient id="cloudG1" x1="0" y1="0" x2="1" y2="1">
      <stop offset="0%" stop-color="#7dd3fc"/>
      <stop offset="100%" stop-color="#0284c7"/>
    </linearGradient>
    <linearGradient id="cloudG2" x1="0" y1="0" x2="1" y2="1">
      <stop offset="0%" stop-color="#bae6fd"/>
      <stop offset="100%" stop-color="#0369a1"/>
    </linearGradient>
    <linearGradient id="cloudG3" x1="0" y1="0" x2="1" y2="1">
      <stop offset="0%" stop-color="#93c5fd"/>
      <stop offset="100%" stop-color="#1d4ed8"/>
    </linearGradient>
    <linearGradient id="dcG" x1="0" y1="0" x2="0" y2="1">
      <stop offset="0%" stop-color="#082f49"/>
      <stop offset="100%" stop-color="#0c4a6e"/>
    </linearGradient>
    <linearGradient id="kubeG" x1="0" y1="0" x2="1" y2="1">
      <stop offset="0%" stop-color="#38bdf8"/>
      <stop offset="100%" stop-color="#0369a1"/>
    </linearGradient>
    <linearGradient id="dbG" x1="0" y1="0" x2="0" y2="1">
      <stop offset="0%" stop-color="#7dd3fc"/>
      <stop offset="100%" stop-color="#0284c7"/>
    </linearGradient>
    <linearGradient id="shieldG" x1="0" y1="0" x2="1" y2="1">
      <stop offset="0%" stop-color="#38bdf8"/>
      <stop offset="100%" stop-color="#0369a1"/>
    </linearGradient>
    <linearGradient id="globeG" x1="0" y1="0" x2="1" y2="1">
      <stop offset="0%" stop-color="#7dd3fc"/>
      <stop offset="100%" stop-color="#0284c7"/>
    </linearGradient>
    <linearGradient id="pipeG" x1="0" y1="0" x2="1" y2="0">
      <stop offset="0%" stop-color="#bae6fd"/>
      <stop offset="50%" stop-color="#38bdf8"/>
      <stop offset="100%" stop-color="#7dd3fc"/>
    </linearGradient>
    <linearGradient id="scanG" x1="0" y1="0" x2="1" y2="0">
      <stop offset="0%" stop-color="#38bdf8" stop-opacity="0"/>
      <stop offset="30%" stop-color="#38bdf8"/>
      <stop offset="70%" stop-color="#7dd3fc"/>
      <stop offset="100%" stop-color="#bae6fd" stop-opacity="0"/>
    </linearGradient>

    <filter id="glow" x="-40%" y="-40%" width="180%" height="180%">
      <feGaussianBlur stdDeviation="3" result="blur"/>
      <feMerge><feMergeNode in="blur"/><feMergeNode in="SourceGraphic"/></feMerge>
    </filter>
    <filter id="glow2" x="-60%" y="-60%" width="220%" height="220%">
      <feGaussianBlur stdDeviation="7" result="blur"/>
      <feMerge><feMergeNode in="blur"/><feMergeNode in="SourceGraphic"/></feMerge>
    </filter>
    <filter id="shadow">
      <feDropShadow dx="0" dy="3" stdDeviation="5" flood-color="#001a2e" flood-opacity="0.5"/>
    </filter>

    <marker id="mBlue" markerWidth="7" markerHeight="7" refX="5" refY="3.5" orient="auto">
      <polygon points="0,0 7,3.5 0,7" fill="#38bdf8" opacity="0.9"/>
    </marker>
    <marker id="mPink" markerWidth="7" markerHeight="7" refX="5" refY="3.5" orient="auto">
      <polygon points="0,0 7,3.5 0,7" fill="#7dd3fc" opacity="0.9"/>
    </marker>
    <marker id="mGreen" markerWidth="7" markerHeight="7" refX="5" refY="3.5" orient="auto">
      <polygon points="0,0 7,3.5 0,7" fill="#bae6fd" opacity="0.9"/>
    </marker>
    <marker id="mYellow" markerWidth="7" markerHeight="7" refX="5" refY="3.5" orient="auto">
      <polygon points="0,0 7,3.5 0,7" fill="#93c5fd" opacity="0.9"/>
    </marker>

    <pattern id="grid" width="40" height="40" patternUnits="userSpaceOnUse">
      <path d="M40,0 L0,0 L0,40" fill="none" stroke="#0c4a6e" stroke-width="0.4" opacity="0.5"/>
    </pattern>

  </defs>

  <!-- BACKGROUND (transparent) -->
  <rect width="600" height="646" fill="none"/>
  <rect width="600" height="646" fill="url(#grid)" opacity="0.35"/>
  <circle cx="300" cy="320" r="260" fill="#082f49" opacity="0.08"/>
  <circle cx="130" cy="190" r="110" fill="#0c4a6e" opacity="0.07"/>
  <circle cx="470" cy="460" r="90"  fill="#083344" opacity="0.07"/>

  <!-- CONNECTION LINES -->
  <line x1="222" y1="258" x2="222" y2="362" stroke="#38bdf8" stroke-width="1.5" stroke-dasharray="7,4" opacity="0.7" marker-end="url(#mBlue)">
    <animate attributeName="stroke-dashoffset" from="0" to="-22" dur="1.6s" repeatCount="indefinite"/>
  </line>
  <line x1="400" y1="148" x2="305" y2="362" stroke="#7dd3fc" stroke-width="1.5" stroke-dasharray="7,4" opacity="0.7" marker-end="url(#mPink)">
    <animate attributeName="stroke-dashoffset" from="0" to="-22" dur="2s" repeatCount="indefinite"/>
  </line>
  <line x1="255" y1="380" x2="240" y2="362" stroke="#93c5fd" stroke-width="1.5" stroke-dasharray="7,4" opacity="0.6" marker-end="url(#mGreen)">
    <animate attributeName="stroke-dashoffset" from="0" to="-22" dur="1.8s" repeatCount="indefinite"/>
  </line>
  <line x1="270" y1="470" x2="270" y2="508" stroke="#bae6fd" stroke-width="1.5" stroke-dasharray="6,4" opacity="0.7" marker-end="url(#mYellow)">
    <animate attributeName="stroke-dashoffset" from="0" to="-20" dur="1.7s" repeatCount="indefinite"/>
  </line>
  <line x1="95" y1="118" x2="155" y2="210" stroke="#38bdf8" stroke-width="1.2" stroke-dasharray="5,5" opacity="0.6">
    <animate attributeName="stroke-dashoffset" from="0" to="-20" dur="2.2s" repeatCount="indefinite"/>
  </line>
  <line x1="510" y1="98" x2="470" y2="105" stroke="#7dd3fc" stroke-width="1.2" stroke-dasharray="5,5" opacity="0.6">
    <animate attributeName="stroke-dashoffset" from="0" to="-20" dur="1.9s" repeatCount="indefinite"/>
  </line>
  <line x1="103" y1="488" x2="175" y2="430" stroke="#bae6fd" stroke-width="1.2" stroke-dasharray="5,5" opacity="0.6">
    <animate attributeName="stroke-dashoffset" from="0" to="-20" dur="2.1s" repeatCount="indefinite"/>
  </line>
  <line x1="500" y1="385" x2="370" y2="415" stroke="#38bdf8" stroke-width="1.2" stroke-dasharray="5,5" opacity="0.6">
    <animate attributeName="stroke-dashoffset" from="0" to="-20" dur="1.5s" repeatCount="indefinite"/>
  </line>
  <path d="M270,228 Q350,140 400,138" fill="none" stroke="#93c5fd" stroke-width="1.2" stroke-dasharray="8,5" opacity="0.4">
    <animate attributeName="stroke-dashoffset" from="0" to="-26" dur="3s" repeatCount="indefinite"/>
  </path>

  <!-- DATA PACKETS -->
  <path id="p1" d="M222,258 L222,362" fill="none"/>
  <path id="p2" d="M400,148 L305,362" fill="none"/>
  <path id="p3" d="M270,470 L270,508" fill="none"/>

  <circle r="3.5" fill="#38bdf8" opacity="0" filter="url(#glow)">
    <animateMotion dur="2.8s" repeatCount="indefinite"><mpath href="#p1"/></animateMotion>
    <animate attributeName="opacity" values="0;1;1;0" keyTimes="0;0.1;0.85;1" dur="2.8s" repeatCount="indefinite"/>
  </circle>
  <circle r="3" fill="#7dd3fc" opacity="0" filter="url(#glow)">
    <animateMotion dur="3.2s" repeatCount="indefinite" begin="0.6s"><mpath href="#p2"/></animateMotion>
    <animate attributeName="opacity" values="0;1;1;0" keyTimes="0;0.1;0.85;1" dur="3.2s" repeatCount="indefinite" begin="0.6s"/>
  </circle>
  <circle r="3" fill="#bae6fd" opacity="0" filter="url(#glow)">
    <animateMotion dur="2.5s" repeatCount="indefinite" begin="1.2s"><mpath href="#p3"/></animateMotion>
    <animate attributeName="opacity" values="0;1;1;0" keyTimes="0;0.1;0.85;1" dur="2.5s" repeatCount="indefinite" begin="1.2s"/>
  </circle>

  <!-- CLOUD 1 — PUBLIC CLOUD -->
  <g filter="url(#shadow)">
    <path d="M108,258 Q88,222 116,208 Q110,175 145,170 Q155,148 190,154 Q206,132 232,143 Q262,123 282,148 Q314,133 322,163 Q352,164 350,193 Q374,204 361,228 Q376,254 350,264 Z" fill="url(#cloudG1)" opacity="0.88">
      <animate attributeName="d" values="M108,258 Q88,222 116,208 Q110,175 145,170 Q155,148 190,154 Q206,132 232,143 Q262,123 282,148 Q314,133 322,163 Q352,164 350,193 Q374,204 361,228 Q376,254 350,264 Z;M108,252 Q88,216 116,202 Q110,169 145,164 Q155,142 190,148 Q206,126 232,137 Q262,117 282,142 Q314,127 322,157 Q352,158 350,187 Q374,198 361,222 Q376,248 350,258 Z;M108,258 Q88,222 116,208 Q110,175 145,170 Q155,148 190,154 Q206,132 232,143 Q262,123 282,148 Q314,133 322,163 Q352,164 350,193 Q374,204 361,228 Q376,254 350,264 Z" dur="5s" repeatCount="indefinite"/>
    </path>
    <path d="M148,178 Q172,158 198,164 Q182,175 162,178 Q148,186 144,200 Z" fill="white" opacity="0.18"/>
  </g>
  <text x="230" y="196" text-anchor="middle" font-family="monospace" font-size="9" fill="white" font-weight="bold" opacity="0.9">PUBLIC CLOUD</text>
  <g transform="translate(168,213)">
    <rect x="0" y="0" width="32" height="26" rx="2" fill="#0c4a6e" opacity="0.85"/>
    <rect x="2" y="3"  width="28" height="4" rx="1" fill="#38bdf8" opacity="0.7"/>
    <rect x="2" y="9"  width="28" height="4" rx="1" fill="#7dd3fc" opacity="0.7"/>
    <rect x="2" y="15" width="28" height="4" rx="1" fill="#bae6fd" opacity="0.6"/>
    <rect x="2" y="21" width="28" height="4" rx="1" fill="#93c5fd" opacity="0.6"/>
    <circle cx="27" cy="5" r="2" fill="#bae6fd">
      <animate attributeName="opacity" values="1;0;1" dur="1.1s" repeatCount="indefinite"/>
    </circle>
    <circle cx="27" cy="11" r="2" fill="#38bdf8">
      <animate attributeName="opacity" values="0;1;0" dur="1.4s" repeatCount="indefinite"/>
    </circle>
  </g>
  <g transform="translate(272,215)">
    <ellipse cx="0" cy="0" rx="16" ry="5.5" fill="#0284c7" opacity="0.9"/>
    <rect x="-16" y="0" width="32" height="10" fill="#0369a1" opacity="0.85"/>
    <ellipse cx="0" cy="10" rx="16" ry="5.5" fill="#0284c7" opacity="0.9"/>
    <ellipse cx="0" cy="0" rx="16" ry="5.5" fill="#38bdf8" opacity="0.35"/>
  </g>
  <g transform="translate(232,218)">
    <polygon points="0,0 10,6 0,12" fill="#bae6fd" opacity="0.9"/>
    <rect x="-5" y="0" width="4" height="12" rx="1" fill="#bae6fd" opacity="0.8"/>
  </g>
  <ellipse cx="230" cy="215" rx="100" ry="48" fill="none" stroke="#38bdf8" stroke-width="1" opacity="0">
    <animate attributeName="rx" values="100;122;100" dur="3.5s" repeatCount="indefinite"/>
    <animate attributeName="ry" values="48;60;48" dur="3.5s" repeatCount="indefinite"/>
    <animate attributeName="opacity" values="0.55;0;0.55" dur="3.5s" repeatCount="indefinite"/>
  </ellipse>

  <!-- CLOUD 2 — PRIVATE CLOUD -->
  <g filter="url(#shadow)">
    <path d="M325,148 Q306,115 332,103 Q326,74 358,70 Q368,49 397,55 Q410,37 432,47 Q459,30 477,52 Q503,38 510,66 Q537,68 535,95 Q558,106 546,128 Q560,150 534,160 Z" fill="url(#cloudG2)" opacity="0.85">
      <animate attributeName="d" values="M325,148 Q306,115 332,103 Q326,74 358,70 Q368,49 397,55 Q410,37 432,47 Q459,30 477,52 Q503,38 510,66 Q537,68 535,95 Q558,106 546,128 Q560,150 534,160 Z;M325,143 Q306,110 332,98 Q326,69 358,65 Q368,44 397,50 Q410,32 432,42 Q459,25 477,47 Q503,33 510,61 Q537,63 535,90 Q558,101 546,123 Q560,145 534,155 Z;M325,148 Q306,115 332,103 Q326,74 358,70 Q368,49 397,55 Q410,37 432,47 Q459,30 477,52 Q503,38 510,66 Q537,68 535,95 Q558,106 546,128 Q560,150 534,160 Z" dur="6s" repeatCount="indefinite"/>
    </path>
    <path d="M360,78 Q384,61 406,67 Q390,78 370,80 Q356,88 352,103 Z" fill="white" opacity="0.15"/>
  </g>
  <text x="430" y="105" text-anchor="middle" font-family="monospace" font-size="8.5" fill="white" font-weight="bold" opacity="0.9">PRIVATE CLOUD</text>
  <g transform="translate(348,112)">
    <rect x="0" y="0" width="48" height="22" rx="3" fill="#0c4a6e" opacity="0.85"/>
    <circle cx="8"  cy="11" r="5.5" fill="#38bdf8" opacity="0.9"/>
    <circle cx="24" cy="11" r="5.5" fill="#7dd3fc" opacity="0.9"/>
    <circle cx="40" cy="11" r="5.5" fill="#bae6fd" opacity="0.9"/>
    <line x1="13.5" y1="11" x2="18.5" y2="11" stroke="white" stroke-width="1.5"/>
    <line x1="29.5" y1="11" x2="34.5" y2="11" stroke="white" stroke-width="1.5"/>
  </g>
  <g transform="translate(464,113)">
    <rect x="-9" y="0" width="18" height="14" rx="2" fill="#0369a1" opacity="0.9"/>
    <path d="M-5,0 Q-5,-8 0,-8 Q5,-8 5,0" fill="none" stroke="#7dd3fc" stroke-width="2.2"/>
    <circle cx="0" cy="7" r="2.5" fill="#7dd3fc"/>
  </g>

  <!-- CLOUD 3 — HYBRID CLOUD -->
  <g filter="url(#shadow)">
    <path d="M108,395 Q88,360 116,346 Q110,313 145,308 Q155,286 190,292 Q206,270 232,281 Q262,260 282,285 Q305,270 315,300 Q344,300 342,329 Q366,340 354,362 Q368,388 342,398 Z" fill="url(#cloudG3)" opacity="0.82">
      <animate attributeName="d" values="M108,395 Q88,360 116,346 Q110,313 145,308 Q155,286 190,292 Q206,270 232,281 Q262,260 282,285 Q305,270 315,300 Q344,300 342,329 Q366,340 354,362 Q368,388 342,398 Z;M108,390 Q88,355 116,341 Q110,308 145,303 Q155,281 190,287 Q206,265 232,276 Q262,255 282,280 Q305,265 315,295 Q344,295 342,324 Q366,335 354,357 Q368,383 342,393 Z;M108,395 Q88,360 116,346 Q110,313 145,308 Q155,286 190,292 Q206,270 232,281 Q262,260 282,285 Q305,270 315,300 Q344,300 342,329 Q366,340 354,362 Q368,388 342,398 Z" dur="7s" repeatCount="indefinite"/>
    </path>
    <path d="M148,326 Q172,308 198,314 Q182,325 162,328 Q148,336 144,350 Z" fill="white" opacity="0.14"/>
  </g>
  <text x="228" y="322" text-anchor="middle" font-family="monospace" font-size="8.5" fill="white" font-weight="bold" opacity="0.9">HYBRID CLOUD</text>
  <g transform="translate(155,333)">
    <rect x="0"  y="0"  width="13" height="13" rx="1.5" fill="#0369a1" opacity="0.9"/>
    <rect x="15" y="0"  width="13" height="13" rx="1.5" fill="#0284c7" opacity="0.9"/>
    <rect x="30" y="0"  width="13" height="13" rx="1.5" fill="#38bdf8" opacity="0.9"/>
    <rect x="0"  y="15" width="13" height="13" rx="1.5" fill="#0c4a6e" opacity="0.9"/>
    <rect x="15" y="15" width="13" height="13" rx="1.5" fill="#0369a1" opacity="0.9"/>
    <rect x="30" y="15" width="13" height="13" rx="1.5" fill="#0284c7" opacity="0.9"/>
  </g>
  <g transform="translate(230,332)">
    <rect x="0" y="0" width="42" height="28" rx="2" fill="#082f49" opacity="0.8"/>
    <polyline points="4,22 10,14 18,19 26,9 34,14 40,6" fill="none" stroke="#7dd3fc" stroke-width="1.8" stroke-linejoin="round"/>
    <line x1="4" y1="25" x2="40" y2="25" stroke="#38bdf8" stroke-width="0.8"/>
  </g>

  <!-- DATA CENTRE -->
  <g filter="url(#shadow)">
    <rect x="175" y="362" width="140" height="112" rx="4" fill="url(#dcG)" opacity="0.96"/>
    <rect x="175" y="362" width="140" height="5" rx="2" fill="#38bdf8" opacity="0.6"/>
    <rect x="175" y="362" width="46"  height="5" rx="2" fill="#7dd3fc" opacity="0.7"/>
    <rect x="175" y="362" width="23"  height="5" rx="2" fill="#bae6fd" opacity="0.8"/>
    <rect x="183" y="367" width="3" height="103" fill="#0284c7" opacity="0.5"/>
    <rect x="309" y="367" width="3" height="103" fill="#0284c7" opacity="0.5"/>
    <rect x="189" y="372" width="112" height="14" rx="2" fill="#041e2e" opacity="0.95"/>
    <rect x="191" y="374" width="52" height="10" rx="1" fill="#38bdf8" opacity="0.45"/>
    <rect x="246" y="374" width="52" height="10" rx="1" fill="#7dd3fc" opacity="0.45"/>
    <circle cx="294" cy="379" r="2.5" fill="#bae6fd">
      <animate attributeName="opacity" values="1;0.1;1" dur="0.9s" repeatCount="indefinite"/>
    </circle>
    <circle cx="300" cy="379" r="2.5" fill="#38bdf8">
      <animate attributeName="opacity" values="0;1;0" dur="1.3s" repeatCount="indefinite"/>
    </circle>
    <rect x="189" y="390" width="112" height="14" rx="2" fill="#041e2e" opacity="0.95"/>
    <rect x="191" y="392" width="58" height="10" rx="1" fill="#0284c7" opacity="0.5"/>
    <rect x="252" y="392" width="46" height="10" rx="1" fill="#93c5fd" opacity="0.45"/>
    <circle cx="294" cy="397" r="2.5" fill="#93c5fd">
      <animate attributeName="opacity" values="1;0.2;1" dur="1.6s" repeatCount="indefinite"/>
    </circle>
    <rect x="189" y="408" width="112" height="14" rx="2" fill="#041e2e" opacity="0.95"/>
    <rect x="191" y="410" width="62" height="10" rx="1" fill="#7dd3fc" opacity="0.45"/>
    <rect x="256" y="410" width="42" height="10" rx="1" fill="#bae6fd" opacity="0.45"/>
    <rect x="189" y="426" width="112" height="14" rx="2" fill="#041e2e" opacity="0.95"/>
    <rect x="191" y="428" width="48" height="10" rx="1" fill="#38bdf8" opacity="0.45"/>
    <rect x="242" y="428" width="56" height="10" rx="1" fill="#93c5fd" opacity="0.45"/>
    <text x="245" y="453" text-anchor="middle" font-family="monospace" font-size="9" fill="#7dd3fc" letter-spacing="1" font-weight="bold">DATA CENTRE</text>
    <rect x="189" y="457" width="25" height="9" rx="1.5" fill="#0c4a6e" opacity="0.9"/>
    <rect x="217" y="457" width="25" height="9" rx="1.5" fill="#0c4a6e" opacity="0.9"/>
    <rect x="245" y="457" width="25" height="9" rx="1.5" fill="#0c4a6e" opacity="0.9"/>
    <rect x="273" y="457" width="25" height="9" rx="1.5" fill="#0c4a6e" opacity="0.9"/>
    <line x1="191" y1="459"   x2="212" y2="459"   stroke="#38bdf8" stroke-width="0.7" opacity="0.7"/>
    <line x1="191" y1="461.5" x2="212" y2="461.5" stroke="#38bdf8" stroke-width="0.7" opacity="0.7"/>
    <line x1="191" y1="464"   x2="212" y2="464"   stroke="#38bdf8" stroke-width="0.7" opacity="0.7"/>
  </g>
  <rect x="172" y="359" width="146" height="118" rx="6" fill="none" stroke="#38bdf8" stroke-width="1.5" opacity="0">
    <animate attributeName="opacity" values="0.7;0;0.7" dur="2.2s" repeatCount="indefinite"/>
    <animate attributeName="x" values="172;167;172" dur="2.2s" repeatCount="indefinite"/>
    <animate attributeName="y" values="359;354;359" dur="2.2s" repeatCount="indefinite"/>
    <animate attributeName="width"  values="146;156;146" dur="2.2s" repeatCount="indefinite"/>
    <animate attributeName="height" values="118;128;118" dur="2.2s" repeatCount="indefinite"/>
  </rect>

  <!-- GLOBE -->
  <g transform="translate(62,108)" filter="url(#glow2)">
    <circle cx="0" cy="0" r="40" fill="url(#globeG)" opacity="0.88"/>
    <ellipse cx="0" cy="0"   rx="40" ry="15" fill="none" stroke="white" stroke-width="0.9" opacity="0.35"/>
    <ellipse cx="0" cy="-13" rx="34" ry="10" fill="none" stroke="white" stroke-width="0.7" opacity="0.25"/>
    <ellipse cx="0" cy="13"  rx="34" ry="10" fill="none" stroke="white" stroke-width="0.7" opacity="0.25"/>
    <line x1="0" y1="-40" x2="0" y2="40"    stroke="white" stroke-width="0.9" opacity="0.35"/>
    <line x1="-22" y1="-33" x2="-22" y2="33" stroke="white" stroke-width="0.6" opacity="0.22"/>
    <line x1="22"  y1="-33" x2="22"  y2="33" stroke="white" stroke-width="0.6" opacity="0.22"/>
    <circle cx="0" cy="0" r="40" fill="none" stroke="#7dd3fc" stroke-width="1.8" opacity="0.7"/>
    <g>
      <animateTransform attributeName="transform" type="rotate" from="0" to="360" dur="9s" repeatCount="indefinite"/>
      <ellipse cx="0" cy="0" rx="54" ry="20" fill="none" stroke="#38bdf8" stroke-width="1" stroke-dasharray="5,4" opacity="0.5" transform="rotate(-25)"/>
      <circle cx="47" cy="-27" r="4" fill="#bae6fd" filter="url(#glow)"/>
    </g>
    <text x="0" y="57" text-anchor="middle" font-family="monospace" font-size="9" fill="#7dd3fc" font-weight="bold">INTERNET</text>
  </g>

  <!-- SECURITY SHIELD -->
  <g transform="translate(530,88)" filter="url(#glow2)">
    <path d="M0,-46 L38,-26 L38,10 Q38,42 0,54 Q-38,42 -38,10 L-38,-26 Z" fill="none" stroke="#38bdf8" stroke-width="2" opacity="0">
      <animate attributeName="opacity" values="0.6;0;0.6" dur="2.8s" repeatCount="indefinite"/>
      <animateTransform attributeName="transform" type="scale" values="1;1.18;1" dur="2.8s" repeatCount="indefinite"/>
    </path>
    <path d="M0,-38 L32,-22 L32,8 Q32,34 0,44 Q-32,34 -32,8 L-32,-22 Z" fill="url(#shieldG)" opacity="0.9"/>
    <path d="M0,-30 L24,-18 L24,8 Q24,26 0,34 Q-24,26 -24,8 L-24,-18 Z" fill="none" stroke="#bae6fd" stroke-width="1.2" opacity="0.5"/>
    <polyline points="-12,3 -3,13 14,-9" fill="none" stroke="white" stroke-width="3" stroke-linecap="round" stroke-linejoin="round"/>
    <text x="0" y="60" text-anchor="middle" font-family="monospace" font-size="9" fill="#bae6fd" font-weight="bold">SECURITY</text>
  </g>

  <!-- CI/CD PIPELINE -->
  <g transform="translate(65,500)" filter="url(#shadow)">
    <rect x="-42" y="-42" width="95" height="76" rx="6" fill="#041e2e" opacity="0.95" stroke="#38bdf8" stroke-width="1.2"/>
    <text x="-36" y="-28" font-family="monospace" font-size="8" fill="#38bdf8" font-weight="bold" letter-spacing="1">CI / CD</text>
    <circle cx="-22" cy="-10" r="11" fill="#0284c7" opacity="0.9"/>
    <text x="-22" y="-6" text-anchor="middle" font-family="monospace" font-size="6" fill="white" font-weight="bold">CODE</text>
    <line x1="-11" y1="-10" x2="-4" y2="-10" stroke="white" stroke-width="1.5" marker-end="url(#mBlue)"/>
    <circle cx="9" cy="-10" r="11" fill="#38bdf8" opacity="0.9"/>
    <text x="9" y="-6" text-anchor="middle" font-family="monospace" font-size="5.5" fill="#001a2e" font-weight="bold">BUILD</text>
    <line x1="20" y1="-10" x2="27" y2="-10" stroke="white" stroke-width="1.5" marker-end="url(#mGreen)"/>
    <circle cx="40" cy="-10" r="11" fill="#7dd3fc" opacity="0.9"/>
    <text x="40" y="-6" text-anchor="middle" font-family="monospace" font-size="5" fill="#001a2e" font-weight="bold">DEPLOY</text>
    <rect x="-38" y="8" width="82" height="7" rx="3" fill="#082f49"/>
    <rect x="-38" y="8" height="7" rx="3" fill="url(#pipeG)" opacity="0.9">
      <animate attributeName="width" values="15;82;15" dur="4s" repeatCount="indefinite"/>
    </rect>
    <text x="-38" y="26" font-family="monospace" font-size="6.5" fill="#93c5fd">TEST &amp; VALIDATE</text>
    <text x="-38" y="36" font-family="monospace" font-size="6" fill="#bae6fd">&#x2713; 247 CHECKS PASSED</text>
  </g>

  <!-- DATABASE CLUSTER -->
  <g transform="translate(300,530)" filter="url(#shadow)">
    <ellipse cx="0" cy="-22" rx="30" ry="10" fill="#38bdf8" opacity="0.95"/>
    <rect x="-30" y="-22" width="60" height="20" fill="#0284c7" opacity="0.9"/>
    <ellipse cx="0" cy="-2" rx="30" ry="10" fill="#38bdf8" opacity="0.9"/>
    <rect x="-30" y="-2" width="60" height="20" fill="#0369a1" opacity="0.9"/>
    <ellipse cx="0" cy="18" rx="30" ry="10" fill="#7dd3fc" opacity="0.95"/>
    <ellipse cx="0" cy="-22" rx="30" ry="10" fill="white" opacity="0.12"/>
    <circle cx="-18" cy="-22" r="2.5" fill="white" opacity="0.55"/>
    <circle cx="0"   cy="-22" r="2.5" fill="white" opacity="0.55"/>
    <circle cx="18"  cy="-22" r="2.5" fill="white" opacity="0.55"/>
    <line x1="32" y1="0" x2="58" y2="0" stroke="#93c5fd" stroke-width="1.5" stroke-dasharray="4,3">
      <animate attributeName="stroke-dashoffset" from="0" to="-14" dur="1.6s" repeatCount="indefinite"/>
    </line>
    <circle cx="66" cy="0" r="9" fill="#0284c7" opacity="0.9"/>
    <text x="66" y="4" text-anchor="middle" font-family="monospace" font-size="6" fill="white">REP</text>
    <line x1="-32" y1="0" x2="-58" y2="0" stroke="#93c5fd" stroke-width="1.5" stroke-dasharray="4,3">
      <animate attributeName="stroke-dashoffset" from="0" to="-14" dur="1.8s" repeatCount="indefinite"/>
    </line>
    <circle cx="-66" cy="0" r="9" fill="#0284c7" opacity="0.9"/>
    <text x="-66" y="4" text-anchor="middle" font-family="monospace" font-size="6" fill="white">REP</text>
    <text x="0" y="36" text-anchor="middle" font-family="monospace" font-size="9" fill="#7dd3fc" font-weight="bold" letter-spacing="0.5">DATABASE CLUSTER</text>
  </g>

  <!-- KUBERNETES -->
  <g transform="translate(535,385)" filter="url(#shadow)">
    <polygon points="0,-42 36,-21 36,21 0,42 -36,21 -36,-21" fill="url(#kubeG)" opacity="0.92" stroke="#7dd3fc" stroke-width="1.5"/>
    <polygon points="0,-28 24,-14 24,14 0,28 -24,14 -24,-14" fill="none" stroke="#bae6fd" stroke-width="1" opacity="0.5"/>
    <g>
      <animateTransform attributeName="transform" type="rotate" from="0" to="360" dur="18s" repeatCount="indefinite"/>
      <circle cx="0" cy="0" r="11" fill="#0369a1" stroke="#7dd3fc" stroke-width="1.5"/>
      <circle cx="0" cy="0" r="4" fill="white"/>
      <line x1="0"   y1="-11" x2="0"    y2="-6"  stroke="white" stroke-width="1.8"/>
      <line x1="9.5" y1="5.5" x2="5"    y2="3"   stroke="white" stroke-width="1.8"/>
      <line x1="-9.5" y1="5.5" x2="-5"  y2="3"   stroke="white" stroke-width="1.8"/>
      <circle cx="0"     cy="-20" r="5" fill="#38bdf8" opacity="0.95"/>
      <circle cx="17.3"  cy="-10" r="5" fill="#38bdf8" opacity="0.95"/>
      <circle cx="17.3"  cy="10"  r="5" fill="#38bdf8" opacity="0.95"/>
      <circle cx="0"     cy="20"  r="5" fill="#38bdf8" opacity="0.95"/>
      <circle cx="-17.3" cy="10"  r="5" fill="#38bdf8" opacity="0.95"/>
      <circle cx="-17.3" cy="-10" r="5" fill="#38bdf8" opacity="0.95"/>
    </g>
    <text x="0" y="58" text-anchor="middle" font-family="monospace" font-size="9" fill="#bae6fd" font-weight="bold">KUBERNETES</text>
  </g>

  <!-- DEVOPS CYCLE -->
  <g transform="translate(300,62)">
    <g>
      <animateTransform attributeName="transform" type="rotate" from="0" to="360" dur="18s" repeatCount="indefinite"/>
      <circle cx="0" cy="0" r="54" fill="none" stroke="#7dd3fc" stroke-width="1.5" stroke-dasharray="10,6" opacity="0.55"/>
    </g>
    <circle cx="0" cy="0" r="38" fill="#041e2e" opacity="0.92" stroke="#38bdf8" stroke-width="1.5"/>
    <path d="M-14,-6 Q-6,-18 0,-12 Q6,-18 14,-6 Q6,6 0,0 Q-6,6 -14,-6 Z" fill="none" stroke="#38bdf8" stroke-width="2" opacity="0.85"/>
    <text x="0" y="6" text-anchor="middle" font-family="monospace" font-size="12" fill="#38bdf8" font-weight="bold">DevOps</text>
    <circle cx="0" cy="0" r="5.5" fill="#7dd3fc" filter="url(#glow)" opacity="0.95">
      <animateMotion dur="7s" repeatCount="indefinite" path="M54,0 A54,54 0 1,1 53.99,0.001"/>
    </circle>
    <circle cx="0" cy="0" r="5.5" fill="#bae6fd" filter="url(#glow)" opacity="0.95">
      <animateMotion dur="7s" repeatCount="indefinite" begin="-3.5s" path="M54,0 A54,54 0 1,1 53.99,0.001"/>
    </circle>
    <circle cx="0" cy="0" r="4.5" fill="#93c5fd" filter="url(#glow)" opacity="0.9">
      <animateMotion dur="11s" repeatCount="indefinite" begin="-4s" path="M54,0 A54,54 0 1,1 53.99,0.001"/>
    </circle>
    <text x="0" y="-64" text-anchor="middle" font-family="monospace" font-size="8" fill="#7dd3fc" opacity="0.9">PLAN  &#x203A;  CODE  &#x203A;  BUILD</text>
    <text x="0" y="76"  text-anchor="middle" font-family="monospace" font-size="8" fill="#bae6fd" opacity="0.9">MONITOR  &#x203A;  OPERATE  &#x203A;  DEPLOY</text>
  </g>

  <!-- MONITORING PANEL -->
  <g transform="translate(52,576)" filter="url(#shadow)">
    <rect x="-40" y="-32" width="80" height="58" rx="5" fill="#041e2e" opacity="0.95" stroke="#38bdf8" stroke-width="1"/>
    <text x="-34" y="-19" font-family="monospace" font-size="7.5" fill="#38bdf8" font-weight="bold">MONITORING</text>
    <text x="-38" y="-5" font-family="monospace" font-size="6" fill="#93c5fd">CPU</text>
    <rect x="-20" y="-9" width="58" height="7" rx="2" fill="#082f49"/>
    <rect x="-20" y="-9" width="42" height="7" rx="2" fill="#7dd3fc" opacity="0.85">
      <animate attributeName="width" values="42;30;50;42" dur="3.2s" repeatCount="indefinite"/>
    </rect>
    <text x="-38" y="9" font-family="monospace" font-size="6" fill="#93c5fd">MEM</text>
    <rect x="-20" y="5"  width="58" height="7" rx="2" fill="#082f49"/>
    <rect x="-20" y="5"  width="33" height="7" rx="2" fill="#38bdf8" opacity="0.85">
      <animate attributeName="width" values="33;50;26;33" dur="4.1s" repeatCount="indefinite"/>
    </rect>
    <text x="-38" y="23" font-family="monospace" font-size="6" fill="#93c5fd">NET</text>
    <rect x="-20" y="19" width="58" height="7" rx="2" fill="#082f49"/>
    <rect x="-20" y="19" width="52" height="7" rx="2" fill="#bae6fd" opacity="0.85">
      <animate attributeName="width" values="52;22;58;52" dur="2.6s" repeatCount="indefinite"/>
    </rect>
  </g>

  <!-- NETWORK NODES -->
  <g opacity="0.75">
    <circle cx="162" cy="48" r="5.5" fill="#38bdf8" filter="url(#glow)">
      <animate attributeName="r" values="5.5;7.5;5.5" dur="2.1s" repeatCount="indefinite"/>
    </circle>
    <circle cx="188" cy="38" r="4.5" fill="#7dd3fc" filter="url(#glow)">
      <animate attributeName="r" values="4.5;6.5;4.5" dur="2.7s" repeatCount="indefinite"/>
    </circle>
    <circle cx="213" cy="53" r="3.5" fill="#bae6fd"/>
    <line x1="162" y1="48" x2="188" y2="38" stroke="#38bdf8" stroke-width="0.9" opacity="0.5"/>
    <line x1="188" y1="38" x2="213" y2="53" stroke="#7dd3fc" stroke-width="0.9" opacity="0.5"/>
    <line x1="162" y1="48" x2="213" y2="53" stroke="#bae6fd"  stroke-width="0.8" opacity="0.4"/>
    <circle cx="478" cy="492" r="5.5" fill="#93c5fd" filter="url(#glow)">
      <animate attributeName="r" values="5.5;7.5;5.5" dur="3.2s" repeatCount="indefinite"/>
    </circle>
    <circle cx="508" cy="480" r="4"   fill="#7dd3fc"/>
    <circle cx="493" cy="512" r="3.5" fill="#bae6fd"/>
    <line x1="478" y1="492" x2="508" y2="480" stroke="#93c5fd" stroke-width="0.9" opacity="0.5"/>
    <line x1="508" y1="480" x2="493" y2="512" stroke="#7dd3fc" stroke-width="0.9" opacity="0.5"/>
    <line x1="478" y1="492" x2="493" y2="512" stroke="#bae6fd"  stroke-width="0.8" opacity="0.4"/>
  </g>

  <!-- STATUS BADGES -->
  <g transform="translate(490,28)">
    <rect x="-32" y="-11" width="64" height="20" rx="10" fill="#0c4a6e" opacity="0.92"/>
    <circle cx="-20" cy="-1" r="4.5" fill="#7dd3fc">
      <animate attributeName="opacity" values="1;0.25;1" dur="1.1s" repeatCount="indefinite"/>
    </circle>
    <text x="2" y="4" font-family="monospace" font-size="8.5" fill="#7dd3fc" font-weight="bold">LIVE</text>
  </g>
  <g transform="translate(112,28)">
    <rect x="-32" y="-11" width="72" height="20" rx="10" fill="#0369a1" opacity="0.92"/>
    <circle cx="-20" cy="-1" r="4.5" fill="#38bdf8">
      <animate attributeName="opacity" values="1;0.25;1" dur="1.5s" repeatCount="indefinite"/>
    </circle>
    <text x="2" y="4" font-family="monospace" font-size="8" fill="#38bdf8" font-weight="bold">SYNCED</text>
  </g>

  <!-- BOTTOM LABEL -->
  <g transform="translate(300,622)">
    <rect x="-80" y="-13" width="160" height="24" rx="12" fill="#041e2e" opacity="0.92" stroke="#38bdf8" stroke-width="0.8"/>
    <text x="0" y="4" text-anchor="middle" font-family="monospace" font-size="9" fill="white" letter-spacing="1.5" opacity="0.9">INFRASTRUCTURE AS CODE</text>
  </g>

  <!-- SCANLINE -->
  <rect x="0" y="0" width="600" height="3" fill="url(#scanG)" opacity="0.18">
    <animateTransform attributeName="transform" type="translate" values="0,-3; 0,649; 0,-3" dur="5.5s" repeatCount="indefinite"/>
  </rect>

</svg>
