<svg xmlns="http://www.w3.org/2000/svg" viewBox="0 0 800 600" width="100%" height="100%">
  <defs>
    <style type="text/css">
      <![CDATA[
      /* ---- CORE ANIMATIONS ---- */

      /* DevOps Infinity Loop Flow */
      .flow-loop {
        stroke-dasharray: 24 24;
        animation: infinityFlow 2s linear infinite;
      }
      @keyframes infinityFlow {
        from { stroke-dashoffset: 96; }
        to { stroke-dashoffset: 0; }
      }

      /* Connection Lines Flow */
      .flow-line {
        stroke-dasharray: 10 12;
        animation: lineFlow 1.5s linear infinite;
      }
      @keyframes lineFlow {
        to { stroke-dashoffset: -22; }
      }

      /* Gear Rotation for Automation */
      .spin {
        transform-origin: 250px 300px;
        animation: spinRight 8s linear infinite;
      }
      @keyframes spinRight {
        100% { transform: rotate(360deg); }
      }

      /* Floating Elements (Tech Nodes) */
      .float-slow { animation: floatBox 5s ease-in-out infinite alternate; }
      .float-fast { animation: floatBox 3s ease-in-out infinite alternate-reverse; }
      .float-cloud { animation: floatBox 6s ease-in-out infinite alternate; }
      
      @keyframes floatBox {
        0% { transform: translateY(0px); }
        100% { transform: translateY(-15px); }
      }

      /* Pulsing Nodes (Ops & Network) */
      .pulse-node {
        animation: pulseScale 2s infinite alternate;
        transform-origin: 550px 300px;
      }
      @keyframes pulseScale {
        0% { transform: scale(0.85); opacity: 0.7; }
        100% { transform: scale(1.15); opacity: 1; }
      }

      /* Blinking Server Lights */
      .blink-1 { animation: blinker 1.5s infinite; }
      .blink-2 { animation: blinker 1.5s infinite 0.5s; }
      .blink-3 { animation: blinker 1.5s infinite 1s; }
      @keyframes blinker {
        50% { fill: #2D3436; }
      }
      ]]>
    </style>
  </defs>

  <g>
    <path d="M 400 180 C 300 180, 250 210, 250 240" fill="none" stroke="#DFE6E9" stroke-width="6" stroke-linecap="round" />
    <path class="flow-line" d="M 400 180 C 300 180, 250 210, 250 240" fill="none" stroke="#6C5CE7" stroke-width="6" stroke-linecap="round" />

    <path d="M 400 180 C 500 180, 550 210, 550 240" fill="none" stroke="#DFE6E9" stroke-width="6" stroke-linecap="round" />
    <path class="flow-line" d="M 400 180 C 500 180, 550 210, 550 240" fill="none" stroke="#00B894" stroke-width="6" stroke-linecap="round" />

    <path d="M 250 360 L 250 540 L 550 540 L 550 360" fill="none" stroke="#DFE6E9" stroke-width="6" stroke-linecap="round" stroke-linejoin="round" />
    
    <path d="M 320 510 L 320 540" fill="none" stroke="#DFE6E9" stroke-width="6" stroke-linecap="round" />
    <path d="M 480 510 L 480 540" fill="none" stroke="#DFE6E9" stroke-width="6" stroke-linecap="round" />

    <path class="flow-line" d="M 400 540 L 250 540 L 250 360" fill="none" stroke="#FD79A8" stroke-width="6" stroke-linecap="round" stroke-linejoin="round" />
    <path class="flow-line" d="M 400 540 L 550 540 L 550 360" fill="none" stroke="#0984E3" stroke-width="6" stroke-linecap="round" stroke-linejoin="round" />
  </g>

  <g>
    <path d="M 400 300 C 480 180, 650 180, 650 300 C 650 420, 480 420, 400 300 C 320 180, 150 180, 150 300 C 150 420, 320 420, 400 300 Z" fill="none" stroke="#F1F2F6" stroke-width="24" stroke-linecap="round" stroke-linejoin="round" opacity="0.8" />
    
    <path class="flow-loop" d="M 400 300 C 480 180, 650 180, 650 300 C 650 420, 480 420, 400 300 C 320 180, 150 180, 150 300 C 150 420, 320 420, 400 300 Z" fill="none" stroke="#6C5CE7" stroke-width="12" stroke-linecap="round" stroke-linejoin="round" />
  </g>

  <g class="spin">
    <circle cx="250" cy="300" r="30" fill="none" stroke="#FDCB6E" stroke-width="12" />
    <line x1="250" y1="255" x2="250" y2="265" stroke="#FDCB6E" stroke-width="10" stroke-linecap="round" />
    <line x1="250" y1="335" x2="250" y2="345" stroke="#FDCB6E" stroke-width="10" stroke-linecap="round" />
    <line x1="205" y1="300" x2="215" y2="300" stroke="#FDCB6E" stroke-width="10" stroke-linecap="round" />
    <line x1="285" y1="300" x2="295" y2="300" stroke="#FDCB6E" stroke-width="10" stroke-linecap="round" />
    <line x1="218" y1="268" x2="226" y2="276" stroke="#FDCB6E" stroke-width="10" stroke-linecap="round" />
    <line x1="274" y1="324" x2="282" y2="332" stroke="#FDCB6E" stroke-width="10" stroke-linecap="round" />
    <line x1="218" y1="332" x2="226" y2="324" stroke="#FDCB6E" stroke-width="10" stroke-linecap="round" />
    <line x1="274" y1="276" x2="282" y2="268" stroke="#FDCB6E" stroke-width="10" stroke-linecap="round" />
  </g>
  <circle cx="250" cy="300" r="10" fill="#2D3436" />

  <g class="pulse-node">
    <circle cx="550" cy="300" r="35" fill="#00B894" opacity="0.2" />
    <circle cx="550" cy="300" r="22" fill="none" stroke="#00B894" stroke-width="6" />
    <circle cx="550" cy="300" r="10" fill="#00B894" />
    <circle cx="510" cy="280" r="5" fill="#00B894" />
    <circle cx="590" cy="320" r="5" fill="#00B894" />
    <circle cx="585" cy="275" r="5" fill="#00B894" />
    <line x1="550" y1="300" x2="510" y2="280" stroke="#00B894" stroke-width="2" />
    <line x1="550" y1="300" x2="590" y2="320" stroke="#00B894" stroke-width="2" />
    <line x1="550" y1="300" x2="585" y2="275" stroke="#00B894" stroke-width="2" />
  </g>

  <g class="float-cloud">
    <path d="M 330 140 A 40 40 0 0 1 400 100 A 50 50 0 0 1 480 140 A 35 35 0 0 1 470 200 L 330 200 A 30 30 0 0 1 330 140 Z" fill="#E1F5FE" opacity="0.9" />
    <path d="M 330 140 A 40 40 0 0 1 400 100 A 50 50 0 0 1 480 140 A 35 35 0 0 1 470 200 L 330 200 A 30 30 0 0 1 330 140 Z" fill="none" stroke="#0984E3" stroke-width="6" stroke-linecap="round" stroke-linejoin="round" />
    
    <circle cx="370" cy="160" r="6" fill="#0984E3" />
    <circle cx="430" cy="150" r="8" fill="#0984E3" />
    <line x1="370" y1="160" x2="430" y2="150" stroke="#0984E3" stroke-width="3" />
  </g>

  <g transform="translate(270, 430)">
    <g class="float-slow">
      <rect x="-10" y="-10" width="120" height="110" rx="15" fill="#FCE4EC" opacity="0.8" />
      
      <rect x="0" y="0" width="100" height="22" rx="6" fill="none" stroke="#FD79A8" stroke-width="4" />
      <rect x="0" y="34" width="100" height="22" rx="6" fill="none" stroke="#FD79A8" stroke-width="4" />
      <rect x="0" y="68" width="100" height="22" rx="6" fill="none" stroke="#FD79A8" stroke-width="4" />
      
      <circle cx="15" cy="11" r="4" fill="#00B894" class="blink-1" />
      <circle cx="15" cy="45" r="4" fill="#00B894" class="blink-2" />
      <circle cx="15" cy="79" r="4" fill="#00B894" class="blink-3" />
      
      <line x1="35" y1="11" x2="85" y2="11" stroke="#FD79A8" stroke-width="3" stroke-linecap="round" opacity="0.5" />
      <line x1="35" y1="45" x2="85" y2="45" stroke="#FD79A8" stroke-width="3" stroke-linecap="round" opacity="0.5" />
      <line x1="35" y1="79" x2="85" y2="79" stroke="#FD79A8" stroke-width="3" stroke-linecap="round" opacity="0.5" />
    </g>
  </g>

  <g transform="translate(425, 430)">
    <g class="float-fast">
      <rect x="-10" y="-10" width="130" height="110" rx="15" fill="#E0F7FA" opacity="0.8" />
      
      <rect x="0" y="0" width="110" height="90" rx="8" fill="none" stroke="#00CEC9" stroke-width="4" />
      <line x1="0" y1="24" x2="110" y2="24" stroke="#00CEC9" stroke-width="4" />
      
      <circle cx="16" cy="12" r="4" fill="#FF5F56" />
      <circle cx="32" cy="12" r="4" fill="#FFBD2E" />
      <circle cx="48" cy="12" r="4" fill="#27C93F" />
      
      <path d="M 35 45 L 20 60 L 35 75 M 50 80 L 65 40 M 80 45 L 95 60 L 80 75" fill="none" stroke="#00CEC9" stroke-width="5" stroke-linecap="round" stroke-linejoin="round" />
    </g>
  </g>

  <circle cx="400" cy="300" r="6" fill="#6C5CE7" opacity="0.8" />

</svg>