<svg width="32" height="33" viewBox="0 0 32 33" fill="none" xmlns="http://www.w3.org/2000/svg">
<path d="M16 4.07959C9.38443 4.07959 4 9.46402 4 16.0796C4 22.6952 9.38443 28.0796 16 28.0796C22.6156 28.0796 28 22.6952 28 16.0796C28 9.46402 22.6156 4.07959 16 4.07959ZM16 6.07959C21.5347 6.07959 26 10.5449 26 16.0796C26 21.107 22.3117 25.2409 17.4883 25.9585V18.9956H20.3359L20.7832 16.103H17.4883V14.5229C17.4883 13.3219 17.8829 12.2554 19.0059 12.2554H20.8105V9.73193C20.4935 9.68893 19.8227 9.59521 18.5547 9.59521C15.9067 9.59521 14.3555 10.9932 14.3555 14.1792V16.103H11.6328V18.9956H14.3555V25.9331C9.60886 25.1502 6 21.0526 6 16.0796C6 10.5449 10.4653 6.07959 16 6.07959Z" fill="white"/>
</svg>
