<svg width="32" height="33" viewBox="0 0 32 33" fill="none" xmlns="http://www.w3.org/2000/svg">
<path d="M11.4688 5.07959C7.91797 5.07959 5 7.99365 5 11.5483V20.6108C5 24.1616 7.91406 27.0796 11.4688 27.0796H20.5312C24.082 27.0796 27 24.1655 27 20.6108V11.5483C27 7.99756 24.0859 5.07959 20.5312 5.07959H11.4688ZM11.4688 7.07959H20.5312C23.0039 7.07959 25 9.07568 25 11.5483V20.6108C25 23.0835 23.0039 25.0796 20.5312 25.0796H11.4688C8.99609 25.0796 7 23.0835 7 20.6108V11.5483C7 9.07568 8.99609 7.07959 11.4688 7.07959ZM21.9062 9.26709C21.4023 9.26709 21 9.66943 21 10.1733C21 10.6772 21.4023 11.0796 21.9062 11.0796C22.4102 11.0796 22.8125 10.6772 22.8125 10.1733C22.8125 9.66943 22.4102 9.26709 21.9062 9.26709ZM16 10.0796C12.6992 10.0796 10 12.7788 10 16.0796C10 19.3804 12.6992 22.0796 16 22.0796C19.3008 22.0796 22 19.3804 22 16.0796C22 12.7788 19.3008 10.0796 16 10.0796ZM16 12.0796C18.2227 12.0796 20 13.8569 20 16.0796C20 18.3022 18.2227 20.0796 16 20.0796C13.7773 20.0796 12 18.3022 12 16.0796C12 13.8569 13.7773 12.0796 16 12.0796Z" fill="white"/>
</svg>
