<svg width="32" height="33" viewBox="0 0 32 33" fill="none" xmlns="http://www.w3.org/2000/svg">
<path d="M7.5 5.07959C6.13281 5.07959 5 6.2124 5 7.57959V24.5796C5 25.9468 6.13281 27.0796 7.5 27.0796H24.5C25.8672 27.0796 27 25.9468 27 24.5796V7.57959C27 6.2124 25.8672 5.07959 24.5 5.07959H7.5ZM7.5 7.07959H24.5C24.7852 7.07959 25 7.29443 25 7.57959V24.5796C25 24.8647 24.7852 25.0796 24.5 25.0796H7.5C7.21484 25.0796 7 24.8647 7 24.5796V7.57959C7 7.29443 7.21484 7.07959 7.5 7.07959ZM10.4375 8.79834C9.48828 8.79834 8.71875 9.56787 8.71875 10.5171C8.71875 11.4663 9.48828 12.2358 10.4375 12.2358C11.3867 12.2358 12.1562 11.4663 12.1562 10.5171C12.1562 9.56787 11.3867 8.79834 10.4375 8.79834ZM19.4688 13.3608C18.0352 13.3608 17.082 14.146 16.6875 14.8921H16.625V13.5796H13.8125V23.0796H16.75V18.3921C16.75 17.1538 16.9961 15.9546 18.5312 15.9546C20.043 15.9546 20.0625 17.353 20.0625 18.4546V23.0796H23V17.8608C23 15.3062 22.457 13.3608 19.4688 13.3608ZM9 13.5796V23.0796H11.9688V13.5796H9Z" fill="white"/>
</svg>
