<svg width="32" height="33" viewBox="0 0 32 33" fill="none" xmlns="http://www.w3.org/2000/svg">
<path d="M16 4.07959C9.38443 4.07959 4 9.46402 4 16.0796C4 22.6952 9.38443 28.0796 16 28.0796C22.6156 28.0796 28 22.6952 28 16.0796C28 9.46402 22.6156 4.07959 16 4.07959ZM16 6.07959C21.5347 6.07959 26 10.5449 26 16.0796C26 21.6143 21.5347 26.0796 16 26.0796C10.4653 26.0796 6 21.6143 6 16.0796C6 10.5449 10.4653 6.07959 16 6.07959ZM12.3301 11.9546C11.3255 11.9546 10.5115 12.7688 10.5117 13.7739V18.3853C10.5117 19.3903 11.3256 20.2046 12.3301 20.2046H19.6699C20.6744 20.2046 21.4883 19.3903 21.4883 18.3853V13.7739C21.4885 12.7688 20.6745 11.9546 19.6699 11.9546H12.3301ZM14.375 13.7358L18.625 16.0796L14.375 18.4233V13.7358Z" fill="white"/>
</svg>
